<svg width="293" height="292" viewBox="0 0 293 292" fill="none" xmlns="http://www.w3.org/2000/svg">
<path d="M230.686 183.677C230.686 184.462 230.426 185.247 229.907 186.294C229.647 186.555 229.647 186.817 229.387 187.079C229.128 187.34 228.868 187.602 228.868 187.864L226.27 186.817C226.53 186.555 226.53 186.294 226.789 186.032C227.049 185.77 227.049 185.509 227.309 185.247C227.569 184.724 227.569 184.462 227.309 184.201C227.049 183.939 227.049 183.677 226.53 183.416C226.53 182.892 226.27 182.892 226.01 182.892L213.8 180.799L215.619 177.659L224.192 179.491L218.476 172.688L220.295 169.548L229.647 181.061C230.167 182.107 230.426 182.892 230.686 183.677ZM208.864 187.34L210.163 188.387C209.903 187.602 209.643 186.817 209.903 186.032C210.163 185.247 210.423 184.724 210.683 183.939C211.202 183.154 211.722 182.631 212.241 182.369C212.761 182.107 213.28 181.846 213.8 181.846C214.32 181.846 214.839 181.846 215.619 182.107C216.138 182.369 216.917 182.631 217.437 183.154L223.672 187.602L221.853 190.742L216.138 186.555C215.359 186.032 214.579 185.509 214.06 185.509C213.54 185.509 213.021 185.77 212.501 186.555C211.981 187.34 211.722 188.125 211.981 188.649C212.241 189.172 212.761 189.957 213.8 190.742L218.996 194.666L216.917 197.545L207.046 190.218L208.864 187.34ZM208.344 198.591C208.344 198.853 208.085 199.115 208.085 199.115C208.085 199.376 207.825 199.638 207.565 199.899C207.305 200.161 207.305 200.423 207.046 200.684C206.786 200.946 206.786 201.208 206.786 201.469C206.786 201.731 206.526 201.993 206.526 202.254C206.526 202.516 206.526 202.778 206.526 203.039C206.526 203.301 206.786 203.563 207.046 203.824C207.305 204.086 207.565 204.086 207.825 204.347C208.085 204.347 208.344 204.347 208.604 204.347C208.864 204.347 209.124 204.086 209.124 204.086C209.384 203.824 209.643 203.824 209.643 203.563C210.163 203.039 210.423 202.516 210.423 202.254C210.423 201.731 210.423 201.469 210.423 201.208C210.423 200.946 210.163 200.684 209.903 200.423C209.643 200.161 209.643 199.899 209.384 199.899L208.344 199.115C208.604 198.33 208.344 198.591 208.344 198.591ZM200.291 200.423C200.291 199.899 200.291 199.115 200.291 198.591C200.291 198.068 200.551 197.283 201.07 196.76C201.33 196.236 201.85 195.713 202.369 195.19C202.889 194.666 203.149 194.405 203.668 193.882C204.188 193.358 204.707 193.097 205.227 192.835C205.747 192.573 206.266 192.573 206.786 192.573C207.305 192.573 207.825 192.835 208.344 193.358L213.021 197.806C213.54 198.068 213.8 198.591 214.32 198.853C214.839 199.115 215.099 199.376 215.359 199.376L213.021 201.993C212.761 201.993 212.761 201.731 212.501 201.731C212.241 201.731 212.241 201.469 211.981 201.469C211.981 202.254 211.982 203.039 211.462 203.824C211.202 204.609 210.683 205.132 210.163 205.656C209.643 206.179 209.384 206.441 208.864 206.702C208.344 206.964 207.825 207.226 207.565 207.226C207.046 207.226 206.526 207.226 206.006 207.226C205.487 206.964 204.967 206.702 204.448 206.441C203.928 205.917 203.668 205.394 203.408 204.871C203.149 204.347 203.149 203.824 203.149 203.301C203.149 202.778 203.409 202.254 203.668 201.993C203.928 201.469 204.188 200.946 204.448 200.684C204.707 200.161 204.967 199.899 205.227 199.376C205.487 198.853 205.747 198.591 206.006 198.33C206.266 198.068 206.266 197.545 206.266 197.283C206.266 197.021 206.266 196.76 206.006 196.498C205.747 196.236 205.487 195.975 205.227 195.975C204.967 195.975 204.707 195.975 204.448 195.975C204.188 195.975 203.928 196.236 203.928 196.236C203.668 196.498 203.408 196.498 203.408 196.76C202.889 197.283 202.629 197.806 202.629 198.33C202.629 198.853 202.889 199.376 203.149 199.899L200.811 202.516C200.811 201.731 200.551 200.946 200.291 200.423ZM200.811 210.889C201.07 210.365 201.07 210.104 200.811 209.58C200.811 209.057 200.551 208.795 200.291 208.272C200.031 207.749 199.771 207.487 199.512 206.964C199.252 206.702 198.732 206.179 198.473 205.917C197.953 205.656 197.693 205.394 197.174 205.394C196.654 205.394 196.394 205.132 195.875 205.394C195.355 205.394 195.095 205.656 194.576 205.917C194.056 206.179 193.796 206.702 193.796 207.226C193.537 207.749 193.537 208.011 193.796 208.534C193.796 209.057 194.056 209.319 194.316 209.842C194.576 210.365 194.835 210.627 195.095 211.15C195.355 211.412 195.875 211.935 196.134 212.197C196.394 212.459 196.914 212.72 197.433 212.72C197.953 212.72 198.213 212.982 198.732 212.72C199.252 212.72 199.512 212.459 200.031 211.935C200.551 211.674 200.811 211.412 200.811 210.889ZM191.198 206.441L192.238 207.749C192.238 206.964 192.238 206.179 192.497 205.656C192.757 204.871 193.277 204.347 193.796 203.824C194.576 203.301 195.355 202.778 196.134 202.516C196.914 202.254 197.693 202.254 198.473 202.516C199.252 202.778 200.031 203.039 200.551 203.563C201.33 204.086 201.85 204.609 202.369 205.394C202.889 205.917 203.409 206.702 203.668 207.487C203.928 208.272 204.188 209.057 204.188 209.842C204.188 210.627 204.188 211.412 203.928 211.935C203.668 212.72 203.149 213.244 202.369 214.028C201.85 214.552 201.07 214.813 200.551 215.075C199.771 215.337 199.252 215.337 198.473 215.075L202.369 219.523L199.771 221.878L188.86 209.057L191.198 206.441ZM174.832 217.953L175.611 219.261C175.611 218.477 175.871 217.692 176.131 217.168C176.391 216.645 176.91 215.86 177.689 215.598C178.469 215.075 178.988 214.813 179.768 214.813C180.547 214.813 181.067 214.813 181.846 215.337C181.846 214.552 182.106 214.028 182.366 213.244C182.625 212.459 183.145 211.935 183.924 211.412C184.444 211.15 184.964 210.889 185.483 210.627C186.003 210.365 186.522 210.365 187.042 210.627C187.561 210.627 188.081 210.889 188.601 211.412C189.12 211.674 189.64 212.197 189.9 212.982L194.316 220.046L191.458 221.878L187.821 215.86C187.561 215.598 187.302 215.075 187.042 214.813C186.782 214.552 186.522 214.29 186.262 214.028C186.003 213.767 185.743 213.767 185.483 213.767C185.223 213.767 184.704 214.028 184.444 214.29C183.924 214.552 183.665 214.813 183.665 215.075C183.405 215.337 183.405 215.598 183.405 216.122C183.405 216.383 183.405 216.907 183.665 217.168C183.924 217.43 183.924 217.953 184.184 218.215L187.821 224.233L184.964 226.064L181.327 220.046C181.067 219.785 180.807 219.523 180.807 219C180.547 218.738 180.287 218.476 180.028 218.215C179.768 217.953 179.508 217.953 179.248 217.953C178.988 217.953 178.469 218.215 177.949 218.476C177.689 218.476 177.689 218.738 177.43 219C177.17 219.261 177.17 219.523 176.91 219.785C176.91 220.046 176.91 220.57 176.91 220.831C176.91 221.355 177.17 221.616 177.43 222.14L181.327 228.419L178.469 230.251L171.974 219.523L174.832 217.953ZM165.739 230.251C165.999 230.774 166.259 231.036 166.778 231.297C167.038 231.559 167.558 231.821 168.077 231.821C168.597 231.821 169.116 231.821 169.636 231.559C170.156 231.297 170.675 231.036 170.935 230.774C171.195 230.512 171.455 229.989 171.455 229.466C171.455 228.942 171.455 228.681 171.455 228.157C171.455 227.634 171.195 227.111 170.935 226.849C170.675 226.326 170.415 226.064 170.156 225.541C169.896 225.018 169.636 224.756 169.117 224.494C168.857 224.233 168.337 223.971 167.818 223.971C167.298 223.971 166.778 223.971 166.259 224.233C165.739 224.494 165.22 224.756 164.96 225.018C164.7 225.279 164.44 225.803 164.44 226.326C164.44 226.849 164.44 227.111 164.44 227.634C164.44 228.157 164.7 228.681 164.96 228.942C165.22 229.466 165.479 229.989 165.739 230.251ZM161.323 227.634C161.323 226.849 161.323 226.064 161.842 225.279C162.102 224.494 162.622 223.971 163.141 223.186C163.661 222.663 164.44 222.14 165.479 221.616C166.259 221.355 167.298 221.093 168.077 221.093C168.857 221.093 169.636 221.355 170.415 221.616C171.195 221.878 171.714 222.401 172.494 222.925C173.013 223.448 173.533 224.233 174.052 225.279C174.312 226.326 174.572 227.111 174.572 227.896C174.572 228.681 174.572 229.466 174.052 230.251C173.793 231.036 173.273 231.559 172.754 232.344C172.234 232.867 171.455 233.39 170.415 233.652C169.636 233.914 168.597 234.175 167.818 234.175C167.038 234.175 166.259 233.914 165.479 233.652C164.7 233.39 164.181 232.867 163.401 232.344C162.882 231.821 162.362 231.036 162.102 229.989C161.583 229.466 161.583 228.419 161.323 227.634ZM155.867 225.541C155.608 225.279 155.348 225.018 154.828 224.756C154.568 224.494 154.049 224.494 153.529 224.494C153.01 224.494 152.75 224.494 152.23 224.494C151.451 224.756 150.672 225.018 150.152 225.541C149.632 226.064 149.373 226.588 149.113 227.111C148.853 227.634 148.853 228.419 148.853 229.204C148.853 229.989 148.853 230.774 149.113 231.297C149.373 232.082 149.632 232.606 149.892 233.39C150.152 233.914 150.672 234.437 151.191 234.96C151.711 235.484 152.23 235.745 152.75 236.007C153.269 236.269 154.049 236.269 154.828 236.007C155.867 235.745 156.647 235.222 157.166 234.437C157.686 233.652 157.686 232.605 157.686 231.559L161.323 230.774C161.583 231.821 161.323 232.867 161.323 233.914C161.063 234.96 160.803 235.745 160.284 236.53C159.764 237.315 159.245 237.838 158.465 238.362C157.686 238.885 156.906 239.147 155.867 239.408C154.568 239.67 153.529 239.67 152.23 239.408C151.191 239.147 150.152 238.885 149.373 238.1C148.593 237.577 147.814 236.792 147.035 235.745C146.515 234.699 145.995 233.652 145.736 232.344C145.476 231.036 145.476 229.989 145.476 228.681C145.736 227.634 145.995 226.326 146.515 225.541C147.035 224.494 147.814 223.709 148.593 222.925C149.632 222.14 150.672 221.616 151.971 221.355C153.01 221.093 153.789 221.093 154.568 221.093C155.348 221.093 156.127 221.355 156.906 221.878C157.686 222.14 158.465 222.663 158.985 223.448C159.504 224.233 160.024 225.018 160.284 225.803L156.647 226.588C156.387 226.064 156.127 225.803 155.867 225.541ZM138.462 223.709L138.981 240.978H135.604L135.084 223.709H138.462ZM132.486 228.419L131.967 240.978L128.59 240.717L129.109 228.157L132.486 228.419ZM129.369 226.326L129.629 223.448L133.006 223.709L132.746 226.588L129.369 226.326ZM114.301 232.082C114.301 232.867 114.561 233.39 114.821 234.175C115.081 234.699 115.34 235.222 115.86 235.745C116.38 236.269 117.159 236.53 117.938 236.792C118.718 237.054 119.497 237.054 120.017 236.792C120.536 236.53 121.316 236.269 121.575 235.745C122.095 235.222 122.355 234.699 122.614 234.175C122.874 233.652 123.134 232.867 123.394 232.082C123.654 231.297 123.654 230.512 123.654 229.989C123.654 229.204 123.394 228.681 123.134 227.896C122.874 227.373 122.614 226.849 122.095 226.326C121.575 225.803 120.796 225.541 120.017 225.279C119.237 225.018 118.458 225.018 117.938 225.279C117.419 225.541 116.639 225.803 116.38 226.326C115.86 226.849 115.6 227.373 115.34 228.157C114.821 228.419 114.561 229.204 114.561 229.989C114.301 230.774 114.301 231.297 114.301 232.082ZM112.223 225.803C112.743 224.756 113.522 223.971 114.301 223.186C115.081 222.401 116.12 222.14 117.159 221.878C118.198 221.616 119.497 221.616 120.796 221.878C122.095 222.14 123.134 222.663 124.173 223.186C125.212 223.971 125.732 224.756 126.252 225.541C126.771 226.588 127.031 227.634 127.291 228.681C127.55 229.727 127.291 231.036 127.031 232.344C126.771 233.652 126.251 234.699 125.732 235.745C125.212 236.792 124.433 237.577 123.654 238.1C122.874 238.623 121.835 239.147 120.796 239.408C119.757 239.67 118.458 239.67 117.159 239.408C115.86 239.147 114.821 238.623 113.782 238.1C112.743 237.315 112.223 236.53 111.444 235.745C110.924 234.699 110.664 233.652 110.404 232.606C110.145 231.559 110.404 230.251 110.404 228.942C111.184 227.896 111.444 226.849 112.223 225.803ZM106.508 222.925L105.468 225.018L103.13 223.971L100.532 229.466C100.273 229.989 100.273 230.512 100.273 230.774C100.273 231.036 100.792 231.297 101.312 231.559C101.572 231.559 101.572 231.821 101.831 231.821C102.091 231.821 102.091 231.821 102.351 232.082L101.312 234.437C101.052 234.437 100.792 234.175 100.532 234.175C100.273 233.914 100.013 233.914 99.4934 233.652C98.9738 233.39 98.4542 233.129 98.1944 232.867C97.6748 232.605 97.415 232.344 97.1553 231.821C96.8955 231.559 96.8955 231.036 96.6357 230.774C96.6357 230.251 96.6357 229.727 96.8955 229.204L100.013 222.401L98.1944 221.616L99.2336 219.523L101.052 220.308L102.611 216.907L105.728 218.476L104.17 221.878L106.508 222.925ZM96.3759 215.598L97.6748 213.244L100.532 215.075L99.2336 217.43L96.3759 215.598ZM98.4542 219L92.2193 229.989L89.3616 228.157L95.5965 217.43L98.4542 219ZM87.0235 219.523C86.7637 219.523 86.504 219.261 86.2442 219.261C85.9844 219.261 85.7246 219 85.4648 219C85.205 218.738 84.9452 218.738 84.6854 218.476C84.4257 218.476 84.1659 218.215 83.9061 218.215C83.6463 218.215 83.3865 218.215 83.1267 218.215C82.8669 218.215 82.6071 218.215 82.3474 218.476C82.0876 218.738 81.8278 218.738 81.8278 219C81.568 219.261 81.568 219.523 81.568 219.785C81.568 220.046 81.568 220.308 81.568 220.57C81.568 220.831 81.8278 221.093 81.8278 221.093C82.0876 221.355 82.0876 221.355 82.3474 221.616C82.8669 222.14 83.3865 222.14 83.9061 222.401C84.4257 222.401 84.6854 222.401 84.9452 222.14C85.205 221.878 85.4648 221.878 85.7246 221.616C85.9844 221.355 86.2442 221.093 86.2442 221.093L87.0235 220.046C87.2833 219.523 87.0235 219.523 87.0235 219.523ZM84.4257 211.674C84.9452 211.412 85.7246 211.412 86.2442 211.412C86.7637 211.412 87.5431 211.674 88.0627 211.935C88.5823 212.197 89.3616 212.72 89.8812 212.982C90.4008 213.244 90.9203 213.767 91.4399 214.29C91.9595 214.813 92.2193 215.337 92.4791 215.86C92.7389 216.383 92.9987 216.907 92.9987 217.43C92.9987 217.953 92.7389 218.477 92.2193 219.261L88.3225 224.494C88.0627 225.018 87.8029 225.279 87.5431 225.803C87.2833 226.326 87.0235 226.588 87.0235 226.849L84.1659 224.756C84.1659 224.494 84.4257 224.494 84.4257 224.233C84.4257 223.971 84.6854 223.971 84.6854 223.709C83.9061 223.709 83.1267 223.709 82.3474 223.448C81.568 223.186 81.0484 222.925 80.269 222.401C79.7495 222.14 79.4897 221.616 78.9701 221.355C78.7103 220.831 78.4505 220.57 78.1907 220.046C77.931 219.523 77.931 219 78.1907 218.476C78.1907 217.953 78.4505 217.43 78.9701 216.907C79.4897 216.383 79.7495 215.86 80.269 215.598C80.7886 215.337 81.3082 215.337 81.568 215.337C82.0876 215.337 82.6071 215.337 83.1267 215.598C83.6463 215.86 84.1659 216.122 84.4257 216.383C84.6854 216.645 85.205 216.907 85.7246 217.168C86.2442 217.43 86.504 217.692 87.0235 217.692C87.2833 217.953 87.8029 217.953 88.0627 217.953C88.3225 217.953 88.5823 217.692 88.842 217.43C89.1018 217.168 89.1018 216.907 89.1018 216.645C89.1018 216.383 89.1018 216.122 89.1018 215.86C89.1018 215.598 88.842 215.337 88.5823 215.337C88.3225 215.075 88.0627 215.075 88.0627 214.813C87.5431 214.29 87.0235 214.29 86.504 214.29C85.9844 214.29 85.4648 214.552 85.205 215.075L82.6071 212.982C83.3865 212.197 83.9061 211.674 84.4257 211.674ZM70.9167 212.982L75.5929 205.656L68.059 209.842L65.7209 207.226L72.2156 195.975L74.5537 198.591L69.8775 205.917L77.4114 201.731L79.7495 204.086L75.0733 211.412L82.8669 207.487L85.205 210.104L73.5146 215.598L70.9167 212.982ZM60.0056 199.115L61.5643 198.068C60.785 198.068 60.0056 197.806 59.486 197.545C58.9664 197.021 58.4469 196.498 57.9273 195.975C57.4077 195.19 57.1479 194.405 57.1479 193.882C57.1479 193.358 57.1479 192.573 57.4077 192.05C57.6675 191.527 57.9273 191.003 58.4469 190.48C58.9664 189.957 59.486 189.695 60.0056 189.172L66.5003 184.985L67.7992 188.125L61.8241 191.788C61.0447 192.312 60.5252 192.835 60.2654 193.358C60.0056 193.882 60.0056 194.405 60.5252 195.19C61.0447 195.975 61.5643 196.498 62.3437 196.498C63.123 196.498 63.9024 196.236 64.9416 195.451L70.3971 192.05L72.2156 194.928L61.8241 201.469L60.0056 199.115ZM65.9807 173.211L59.486 176.089L68.5786 179.491L70.3971 183.939L61.5643 180.276L55.0696 191.265L53.2511 186.817L58.1871 178.968L55.3294 177.921L50.3934 180.276L48.8347 176.874L64.422 169.81L65.9807 173.211ZM84.6854 50.7598C82.0876 53.6379 79.7495 57.0394 77.4114 60.1792C77.1516 60.7024 76.1124 62.2723 73.2548 61.4874L74.8135 64.1039C72.995 66.982 71.1765 70.1218 69.358 73.2616C68.3188 75.3548 65.4611 76.1397 63.3828 74.8315C62.3437 74.0465 58.4469 70.1218 58.9664 69.0752C58.9664 69.0752 58.9664 68.8136 59.2262 68.8136C59.486 68.8136 59.486 68.8136 59.486 68.8136C59.7458 69.0752 60.5252 70.6451 61.8241 71.43C63.123 72.215 65.2013 71.43 65.9807 70.1218C67.7992 66.982 69.6177 63.8422 71.4363 60.9641C70.6569 60.1791 69.6177 59.3942 68.8384 58.6093C68.3188 57.301 67.7992 55.9928 67.5394 54.6845L69.358 55.7311C70.1373 56.2544 70.6569 56.7777 71.4363 57.301C72.4754 57.8243 73.5146 57.5627 74.0341 56.7777C75.8527 54.1612 77.931 51.5448 80.0093 48.9283C78.4505 48.405 76.8918 48.1433 75.3331 47.8817L73.7743 43.6953C75.8527 43.6953 78.9701 44.2186 80.5288 45.5268C81.8278 47.3584 83.3865 49.1899 84.6854 50.7598ZM90.141 38.724C89.3616 39.2473 88.5823 39.7706 87.5431 39.5089C87.2833 39.2473 87.2833 37.939 87.5431 37.6774C88.3225 37.1541 89.8812 37.939 90.4008 38.2007C90.4008 38.4623 90.4008 38.724 90.141 38.724ZM113.002 27.2114C113.002 26.6881 111.963 23.0251 111.703 22.5018L108.586 18.0537L109.365 13.3441C108.326 13.3441 104.689 13.3441 103.91 12.8208C103.65 12.5591 103.39 12.2975 103.13 11.7742H102.871C102.611 13.3441 102.611 15.4373 102.611 17.0072C102.871 17.2688 103.91 17.2688 104.17 17.5304C105.209 18.3154 108.846 23.0251 109.365 24.3333V24.595C107.807 25.3799 106.248 26.4265 104.689 27.4731H104.429C102.091 29.3046 95.5965 26.4265 92.7389 26.1648V25.9032L98.9738 19.6236C98.9738 18.0537 98.4542 16.7455 97.9346 15.4373C97.415 15.6989 90.6606 23.0251 89.8812 24.0717C90.4008 25.9032 90.9203 27.9964 91.9595 29.8279L100.013 31.1362C97.6748 32.7061 95.5965 34.5376 93.5182 36.3691C91.9595 35.0609 88.0627 32.1828 86.2442 33.7527C84.4256 35.3225 86.504 41.6021 87.8029 43.172C89.6214 45.2652 92.2193 42.9104 93.778 41.6021C93.778 43.9569 92.4791 47.8817 90.6606 49.4516C89.8812 50.2365 88.3225 50.7598 87.2833 51.0215C87.2833 51.0215 86.7637 51.2831 87.0235 51.5448C87.2833 51.8064 87.8029 51.8064 87.8029 51.8064C89.8812 52.068 93.5182 50.7598 94.8172 49.4516C96.8955 47.62 96.3759 42.9104 95.5965 40.2939C97.9346 38.2007 100.273 36.3691 102.611 34.7992L102.351 31.6595L106.248 32.1828C108.326 30.8745 110.404 29.5663 112.743 28.258C112.743 27.7347 113.002 27.4731 113.002 27.2114ZM234.063 75.0931C233.804 75.3548 233.284 75.3548 233.024 75.3548C233.024 75.3548 233.024 75.3548 232.765 75.3548C232.765 75.3548 232.765 75.3548 232.505 75.3548C231.206 75.6164 229.907 75.3548 229.387 75.3548C229.128 75.3548 228.608 75.3548 228.088 75.3548C227.309 73.5232 226.789 71.43 226.01 69.5985C226.27 69.3369 226.53 69.0752 226.789 68.8136C226.53 68.5519 226.01 68.5519 225.75 68.5519C225.49 68.5519 225.49 68.2903 225.231 68.0286C224.711 66.4587 223.932 65.1505 223.412 63.5806C223.672 63.3189 223.932 63.0573 224.192 62.7956C223.932 62.534 223.412 62.534 223.412 62.534C223.412 62.534 222.893 62.2723 222.633 62.2723C222.373 62.0107 221.853 61.2257 221.594 60.7024C221.074 59.6559 220.554 58.8709 220.035 57.8243L219.775 57.5627C219.515 57.301 219.256 56.2544 219.256 55.9928H218.996C216.398 55.9928 211.722 57.301 209.903 54.4229C208.864 52.853 208.085 47.62 208.864 45.5268L209.384 45.2652H209.643C209.643 45.2652 209.384 47.8817 210.423 49.1899C211.462 51.0215 217.957 53.8996 219.515 52.853C220.295 52.3297 221.074 49.1899 221.334 48.9283C221.594 48.6666 224.971 48.6666 225.75 48.6666C224.711 51.5448 222.893 53.1146 224.711 56.5161C225.49 57.8243 226.27 59.3942 226.789 60.7024C227.829 60.7024 227.829 60.7024 228.608 60.1792C229.387 59.9175 232.245 60.7024 232.765 61.2257C232.505 61.4874 232.245 61.4874 231.985 61.749C231.466 62.0107 228.348 62.534 227.569 62.534C228.348 63.8422 228.868 65.4121 229.387 66.7204C229.907 66.7204 230.426 66.4587 230.946 66.4587C231.985 66.7204 234.323 66.982 235.103 68.0286H234.843C233.804 68.5519 231.466 68.0286 230.167 68.5519H229.907C230.426 69.5985 230.686 70.6451 230.946 71.6917H231.206C231.725 71.43 231.985 71.1684 232.505 71.1684C233.544 70.9067 236.402 71.9533 237.181 72.4766L234.063 75.0931ZM243.676 62.534C243.676 62.7956 242.896 65.1505 242.896 65.6738C242.377 65.6738 240.298 64.6272 240.039 64.3655C240.039 64.1039 240.558 61.749 240.818 61.4874C241.078 61.2257 243.676 62.2723 243.676 62.534ZM241.597 66.1971L241.338 70.1218C240.818 70.1218 238.22 69.5985 237.96 69.0752C237.96 68.8136 237.96 65.9354 237.96 65.4121C237.181 65.1505 236.402 64.8888 235.622 64.3655C235.362 63.8422 235.622 61.2257 235.622 60.7024C236.142 60.7024 238.74 61.4874 238.999 61.749C238.999 62.2723 238.48 64.6272 238.74 65.1505C239.259 65.1505 241.338 65.9354 241.597 66.1971ZM147.035 10.2043C148.333 9.94264 150.672 11.2509 151.451 12.8208C148.074 12.8208 144.437 13.0824 141.059 13.6057C142.618 12.0358 145.476 10.4659 147.035 10.2043ZM169.376 11.2509C170.415 11.5125 170.935 12.8208 170.935 13.6057C170.935 14.3907 169.117 14.129 168.857 14.129C168.337 14.129 166.519 13.0824 166.519 12.2975C166.519 11.7742 168.597 11.2509 169.376 11.2509ZM185.743 19.362C186.003 19.1003 186.003 18.577 186.262 18.0537C187.302 15.4373 186.522 13.3441 185.743 10.7276L182.366 13.6057C182.885 15.1756 183.145 16.7455 183.145 18.3154C181.327 17.5304 179.508 17.0072 177.689 16.4839C175.092 15.6989 174.312 15.4373 172.234 14.914C173.013 13.8674 173.793 13.3441 174.052 11.7742C174.572 10.2043 174.312 7.84945 172.494 7.58781C169.896 7.06451 165.999 9.94264 164.181 11.5125C163.661 12.0358 163.661 12.5591 163.401 13.3441C159.764 12.8208 158.465 12.8208 154.568 12.8208C154.568 12.2975 155.088 11.5125 155.088 11.2509C154.828 8.6344 150.931 6.27956 148.853 6.54121C147.035 6.80286 140.02 11.5125 138.721 12.8208V12.5591C138.981 11.2509 139.241 10.2043 138.981 9.1577C138.981 8.37275 138.721 7.84945 138.462 7.06451C140.02 6.80286 140.02 4.44802 140.54 3.40143C138.721 2.87813 136.383 1.83154 135.864 0C135.084 1.04659 133.785 2.87813 134.045 4.18638C134.045 4.97132 134.825 5.23297 135.084 6.01792C135.864 8.1111 136.903 11.7742 137.163 14.129C137.163 14.914 136.383 14.914 135.604 15.1756C134.045 15.4373 130.408 16.7455 130.148 14.3907C130.148 13.6057 130.148 12.8208 130.148 12.2975C129.889 11.7742 130.148 11.7742 129.889 11.7742C128.59 12.5591 128.59 15.9606 128.849 17.2688C129.369 19.1003 131.187 20.6702 133.006 20.4086H133.266C147.814 15.6989 161.323 15.6989 176.65 20.6702C178.988 21.4552 181.327 22.5018 183.665 23.2867C184.444 21.9785 185.223 20.6702 185.743 19.362ZM165.22 2.87813L168.857 0.523297C169.896 1.56989 170.675 2.35484 171.714 3.13978C171.195 3.66308 169.376 4.97132 168.597 5.49462C167.558 4.70967 166.259 3.40143 165.22 2.87813ZM180.547 5.23297L184.444 3.40143C185.223 4.44802 186.003 5.49462 187.042 6.27956C186.522 6.80286 184.444 7.84945 183.665 8.37275C182.366 7.32616 181.586 6.27956 180.547 5.23297ZM201.07 28.258L197.693 25.6416C198.213 25.1183 199.252 25.3799 199.771 25.3799C200.551 25.3799 201.33 24.8566 202.11 24.595L201.07 28.258ZM226.53 32.7061C222.633 30.6129 218.996 28.5197 215.359 26.4265C214.06 27.2114 212.241 28.258 211.202 29.3046C210.942 29.5663 210.683 33.491 211.202 33.7527C211.462 34.0143 211.722 34.0143 211.981 34.0143L212.761 39.2473C210.423 36.6308 208.085 34.276 205.487 32.1828C205.487 32.1828 205.487 32.1828 205.227 31.9211C204.448 31.3978 203.928 30.3512 203.928 29.8279C204.448 26.6881 206.526 22.7634 207.565 19.362V19.1003L203.668 21.4552C203.409 21.9785 203.408 22.2401 203.408 22.7634C196.914 22.7634 196.914 21.7168 191.978 26.6881L197.433 31.3978C198.213 31.9211 200.291 30.0896 201.07 30.0896C200.811 31.3978 199.771 33.2294 201.59 34.7992C205.227 37.6774 208.604 41.0788 211.722 44.7419C212.241 44.4802 214.839 43.172 215.619 42.6487C215.878 42.6487 215.878 42.3871 215.878 42.3871C217.177 41.0788 215.878 33.2294 215.619 31.3978C218.216 32.7061 220.555 34.276 223.152 35.5842C224.192 34.276 225.49 33.491 226.53 32.7061ZM198.732 15.1756C197.953 14.3907 197.174 13.3441 196.654 12.2975C197.693 11.7742 198.732 11.5125 199.771 10.9892C200.031 11.5125 201.33 13.6057 201.59 13.8674C201.85 13.8674 203.928 13.3441 204.188 13.3441L206.266 16.4839C205.747 16.7455 203.408 17.7921 203.149 17.7921C202.889 17.5304 201.33 15.1756 201.07 14.914C200.291 14.6523 199.252 14.914 198.732 15.1756ZM60.785 63.3189C60.0056 64.1039 58.9664 64.6272 57.6675 65.1505C57.1479 64.1039 56.8881 63.0573 56.6284 61.749C57.1479 61.4874 59.2262 60.4408 59.486 60.1792C59.486 59.9175 59.2262 57.8243 59.2262 57.5627L62.3437 55.7311C62.6035 56.2544 63.6426 58.8709 63.3828 59.1326C63.123 59.3942 60.785 60.7024 60.2654 60.9641C60.5252 61.749 60.785 62.534 60.785 63.3189ZM120.017 24.8566L114.301 13.6057C114.301 11.7742 114.821 9.41935 115.34 7.84945C117.159 11.2509 118.718 14.3907 120.017 17.7921C120.796 20.4086 120.796 22.5018 120.017 24.8566ZM84.1659 58.8709C84.1659 59.6559 84.1659 60.7024 84.4257 61.4874C83.3865 62.0107 82.3474 62.534 81.0484 62.534C80.7886 61.4874 80.5288 60.4408 80.269 59.1326C80.7886 58.8709 82.8669 58.3476 83.1267 58.086C83.3865 57.8243 82.8669 55.9928 82.8669 55.4695L86.2442 54.1612C86.504 55.2078 87.0235 56.5161 87.0235 57.5627L84.1659 58.8709ZM196.914 132.394L201.07 131.871C195.355 145.477 179.248 163.792 149.892 158.297C143.397 164.577 142.358 166.408 135.344 172.426C130.928 176.089 123.913 182.369 122.095 187.602C125.992 189.695 123.654 192.573 123.654 192.573C122.095 191.265 120.536 191.003 119.497 192.05C116.639 194.666 120.796 199.638 120.796 199.638C115.6 198.33 114.561 195.451 114.561 195.19C113.002 197.021 113.262 200.161 113.262 200.161C110.145 197.806 110.664 194.405 110.664 194.405C108.846 194.928 108.326 196.236 108.326 196.236C107.547 190.218 111.184 191.265 117.159 184.985C123.394 178.444 123.394 169.548 124.173 164.577C124.433 161.699 125.212 157.774 126.511 154.111C118.718 152.803 113.262 148.355 110.664 147.831C103.65 146.785 99.4933 153.849 97.9346 158.821C94.5574 157.251 94.2976 152.803 94.5574 152.279C93.2584 151.233 91.1801 147.57 93.778 142.075C96.3759 136.057 110.924 128.208 113.002 126.376C119.757 120.62 120.017 109.892 119.757 103.09C119.497 94.7168 116.639 85.0358 116.639 85.0358C125.212 75.0931 130.408 54.1612 131.187 47.0967C137.942 50.7598 136.383 58.3476 136.383 58.3476L138.981 55.2078C141.059 59.6559 139.241 67.2437 139.241 67.2437C139.241 67.2437 140.8 65.1505 141.319 64.6272C143.138 69.3368 141.579 76.663 141.579 76.663C141.579 76.663 142.358 75.8781 142.618 75.8781C143.138 79.0178 142.099 84.7741 140.8 88.1755C140.8 88.1755 141.579 87.6523 142.099 87.9139C141.839 93.4085 138.462 104.398 138.462 104.398C148.593 97.8565 155.348 82.1576 156.647 79.5411C175.351 74.0465 187.042 52.068 187.042 52.068C187.561 55.2078 187.302 60.7024 187.302 60.7024C187.302 60.7024 189.12 58.086 189.9 57.5627C191.458 62.7956 189.38 69.0752 189.38 69.0752L191.718 67.2437C192.238 70.1218 190.939 74.5698 190.939 74.5698C190.939 74.5698 192.497 73.7849 193.277 73.7849C192.757 75.8781 192.238 77.9713 191.458 80.0644C187.042 90.792 174.832 102.566 159.764 109.369C166.259 108.061 172.234 104.921 172.234 104.921C171.455 108.061 168.857 110.154 168.857 110.154L170.675 111.201C168.857 113.294 165.22 114.864 165.22 114.864C165.22 114.864 166.778 115.125 167.298 115.649C162.362 118.788 159.764 119.835 159.764 119.835L161.583 121.405C157.946 123.498 152.49 125.591 152.49 125.591C152.49 125.591 153.789 126.376 154.049 126.638C150.672 129.778 145.216 129.778 145.216 129.778C145.216 129.778 147.814 141.029 160.284 142.075C173.273 143.122 178.469 132.917 179.768 126.9C180.287 124.021 180.287 121.928 180.287 121.928L183.405 126.376L186.782 125.591L187.302 127.423L190.159 126.9L190.939 129.516L193.017 128.208L194.316 131.086L196.134 130.301L196.914 132.394ZM117.159 206.702C84.4257 195.975 70.1373 149.663 84.9452 103.09C99.7531 56.5161 138.202 27.7347 170.935 38.4623C203.408 49.4516 217.957 95.7634 203.149 142.337C188.341 188.91 149.632 217.43 117.159 206.702ZM172.494 33.7527C133.266 20.9319 88.842 50.2365 73.2548 99.1648C57.4077 148.355 76.3722 198.591 115.6 211.674C154.828 224.494 199.252 195.19 214.839 146.262C230.426 97.0716 211.462 46.8351 172.494 33.7527Z" fill="white"/>
<path d="M291.219 261.386V261.125C291.219 260.863 291.479 260.601 291.738 260.601C291.998 260.601 291.998 260.601 292.258 260.863L292.518 260.34C292.258 260.078 291.998 260.078 291.738 260.078C290.959 260.078 290.699 260.34 290.699 261.125V261.386H290.18L289.92 261.91H292.777V261.386H291.219ZM290.439 271.852H291.998V262.695L290.439 263.218V271.852ZM284.724 264.265C283.425 264.265 282.126 264.788 281.087 265.834L282.126 266.881C282.906 266.096 283.685 265.573 284.724 265.573C285.763 265.573 286.543 266.096 286.802 266.881C287.062 267.404 287.062 268.451 287.062 269.497V270.021H280.048H277.45H276.93H275.112V266.881C275.112 266.096 274.852 265.311 274.073 264.788C273.553 264.265 272.774 264.003 271.735 264.003C270.955 264.003 270.176 264.265 269.397 265.049V266.881C269.916 265.834 270.696 265.311 271.735 265.311C272.774 265.311 273.553 265.834 273.553 266.881V270.021H269.397L268.357 271.329H276.93H277.45H279.788H280.308H288.881V269.497C288.881 267.928 288.621 266.619 288.101 265.834C287.582 265.049 286.283 264.265 284.724 264.265ZM264.461 265.834C265.24 265.834 266.019 266.358 266.539 267.143L267.058 265.573C266.279 264.788 265.5 264.265 264.461 264.265C262.642 264.265 261.343 265.311 261.343 267.143V269.497H265.5V271.329C265.5 272.114 265.24 272.637 264.461 272.899C263.941 273.161 263.421 273.422 262.642 273.422C261.603 273.422 260.564 273.161 260.044 272.376C259.525 271.852 259.265 270.806 259.265 269.236L257.706 269.759C257.966 271.591 258.226 272.637 258.745 273.422C259.525 274.469 260.824 274.73 262.382 274.73C263.681 274.73 264.72 274.469 265.5 273.946C266.539 273.422 266.799 272.376 266.799 271.329V267.928H262.642V267.143C262.902 266.358 263.421 265.834 264.461 265.834ZM250.432 268.713C250.432 269.759 249.912 270.282 248.873 270.282H247.055V264.788L245.496 265.311V270.282H242.119V265.573L240.56 266.096V270.282H239.001H238.742H236.404H235.884H234.065V264.265L232.507 264.788V271.329C232.507 272.637 231.727 273.684 230.428 273.684C229.389 273.684 228.61 273.422 227.831 273.161L228.61 274.73C229.129 274.992 229.649 275.254 230.428 275.254C232.507 275.254 234.065 273.946 234.065 272.114H236.144H236.663H239.001H239.261H249.133C250.952 272.114 252.251 271.067 252.251 269.236V264.526L250.692 265.049V268.713H250.432ZM245.236 263.741C245.756 263.741 246.016 263.218 246.016 262.956C246.016 262.433 245.496 262.171 245.236 262.171C244.717 262.171 244.457 262.695 244.457 262.956C244.197 263.218 244.717 263.741 245.236 263.741ZM246.535 262.695C246.535 263.218 246.795 263.48 247.315 263.48C247.834 263.48 248.094 262.956 248.094 262.695C248.094 262.171 247.574 261.91 247.315 261.91C246.795 261.91 246.535 262.171 246.535 262.695ZM246.275 261.648C246.795 261.648 247.055 261.125 247.055 260.863C247.055 260.34 246.535 260.078 246.275 260.078C245.756 260.078 245.496 260.601 245.496 260.863C245.496 261.386 245.756 261.648 246.275 261.648ZM225.752 265.834C224.973 265.049 223.934 264.788 222.895 264.788C222.635 264.788 222.375 264.788 222.115 264.788L225.752 261.125H223.674L218.478 266.619L219.517 267.666C220.297 266.881 221.336 266.358 222.375 266.358C223.414 266.358 223.934 266.619 224.713 267.143C225.233 267.404 225.492 268.189 225.492 268.713C225.492 268.974 225.492 269.759 225.492 270.544H217.959H215.361H214.841H213.802C213.282 270.544 213.023 270.282 213.023 269.759V261.125L211.464 261.648V269.759C211.464 271.067 212.243 271.852 213.802 271.852H215.101H215.62H217.959H218.478H227.571C227.571 270.021 227.571 268.974 227.571 268.713C227.051 267.404 226.532 266.619 225.752 265.834ZM202.631 265.311C203.151 265.311 203.41 265.049 203.41 264.526C203.41 264.003 202.891 263.741 202.631 263.741C202.112 263.741 201.852 264.264 201.852 264.526C201.852 265.049 202.371 265.311 202.631 265.311ZM204.969 265.311C205.489 265.311 205.749 265.049 205.749 264.526C205.749 264.003 205.229 263.741 204.969 263.741C204.45 263.741 204.19 264.264 204.19 264.526C204.19 265.049 204.45 265.311 204.969 265.311ZM208.346 268.713C208.346 269.759 207.827 270.282 206.788 270.282H201.072C200.033 270.282 199.514 269.759 199.514 268.713V265.573L197.955 267.143V268.713C197.955 270.544 199.254 271.591 201.072 271.591H207.047C209.126 271.591 210.165 270.544 210.165 268.713V264.003L208.606 264.526V268.713H208.346ZM190.681 268.189C190.681 266.619 190.161 265.834 189.122 265.834C188.083 265.834 187.563 266.619 187.563 268.189C187.563 269.759 188.083 270.282 189.122 270.282C190.161 270.544 190.681 269.759 190.681 268.189ZM177.691 268.451C177.691 267.666 177.691 267.143 177.432 266.881C177.172 266.358 176.652 266.096 176.133 266.096C175.094 266.096 174.314 266.881 174.314 268.713C174.314 270.021 174.834 270.806 176.133 270.806H177.691V268.451ZM191.46 265.834C191.98 266.358 192.24 267.404 192.24 268.189C192.24 269.236 191.98 270.021 191.46 270.544C190.941 271.329 190.161 271.591 188.862 271.591C187.823 271.591 187.044 271.329 186.524 270.806C186.005 271.329 185.225 271.591 184.186 271.591H179.25C178.99 272.376 178.731 273.161 178.211 273.946C177.691 274.469 176.652 274.992 175.873 274.992C175.094 274.992 174.314 274.73 173.795 274.469L173.015 272.899C174.054 273.422 174.834 273.422 175.613 273.422C176.652 273.422 177.432 272.637 177.691 271.591H176.393C175.353 271.591 174.314 271.329 173.795 270.544C173.275 270.021 173.015 269.236 173.015 268.189C173.015 267.143 173.275 266.096 173.795 265.573C174.314 264.788 175.353 264.265 176.393 264.265C178.471 264.265 179.51 265.573 179.51 268.189C179.51 268.713 179.51 269.497 179.51 270.282H184.186C185.225 270.282 185.745 269.759 185.745 268.713V268.189C185.745 267.143 186.005 266.358 186.524 265.834C187.044 265.049 187.823 264.788 189.122 264.788C190.161 264.788 190.941 265.049 191.46 265.834ZM178.211 262.695H175.873V262.171C175.873 261.386 176.133 261.125 176.652 261.125C176.912 261.125 177.172 261.386 177.432 261.648L178.211 261.125C177.691 260.601 177.432 260.601 176.912 260.601C175.613 260.601 175.094 261.386 175.094 262.695V262.956H174.314L173.535 263.741H178.211V262.695ZM130.93 265.573H129.111C128.332 265.573 128.072 265.834 127.812 266.096C127.552 266.358 127.552 267.143 127.552 267.928C127.552 268.713 127.552 269.236 127.812 269.759C128.072 270.282 128.592 270.544 129.111 270.544C129.89 270.544 130.15 270.282 130.41 269.759C130.67 269.497 130.67 268.713 130.67 267.928V265.573H130.93ZM169.638 264.788L171.197 264.265V268.974C171.197 270.806 169.898 271.852 168.079 271.852H134.047C132.748 271.852 131.969 271.591 131.449 270.806C131.189 271.591 130.15 271.852 129.111 271.852C127.033 271.852 125.994 270.544 125.994 267.928C125.994 265.573 127.033 264.265 129.111 264.265H132.488V268.713C132.488 269.759 133.008 270.282 134.047 270.282H139.243V266.096L140.802 265.573V270.282H144.179V265.311L145.738 264.788V270.021H149.115V264.526L150.674 264.003V270.021H159.506V265.834L161.065 265.311V270.021H164.442V265.049L166.001 264.526V270.021H167.82C168.859 270.021 169.378 269.497 169.378 268.451V264.788H169.638ZM130.93 262.956C131.449 262.956 131.709 262.433 131.709 262.171C131.709 261.648 131.189 261.386 130.93 261.386C130.41 261.386 130.15 261.648 130.15 262.171C129.89 262.433 130.41 262.956 130.93 262.956ZM128.592 262.956C129.111 262.956 129.371 262.433 129.371 262.171C129.371 261.648 128.851 261.386 128.592 261.386C128.072 261.386 127.812 261.648 127.812 262.171C127.552 262.433 128.072 262.956 128.592 262.956ZM118.72 271.852H120.278V261.125L118.72 261.648V271.852ZM115.602 268.713C115.602 269.759 115.083 270.544 114.043 270.544H109.887C108.848 270.544 108.328 270.021 108.328 268.974V264.526L106.769 265.049V268.974C106.769 270.021 106.25 270.544 105.211 270.544H103.652C102.613 270.544 102.093 270.021 102.093 268.974V264.526L100.534 265.049V268.974C100.534 270.021 100.015 270.544 98.9757 270.544H93.2604V264.526L91.7017 265.049V271.591C91.7017 272.899 90.9223 273.946 89.6234 273.946C88.5842 273.946 87.8049 273.684 87.0255 273.422L87.8049 274.992C88.3244 275.254 88.844 275.515 89.6234 275.515C91.7017 275.515 93.2604 274.207 93.2604 272.376H99.2355C100.275 272.376 101.054 272.114 101.574 271.591C102.093 272.114 102.873 272.376 103.912 272.376H105.73C106.769 272.376 107.549 272.114 108.068 271.591C108.588 272.114 109.367 272.376 110.406 272.376H114.823C115.862 272.376 116.641 272.114 117.161 271.591C117.68 271.067 117.94 270.282 117.94 269.497V261.648L116.382 262.171V268.713H115.602ZM107.289 273.422C106.769 273.422 106.51 273.946 106.51 274.207C106.51 274.73 107.029 274.992 107.289 274.992C107.809 274.992 108.068 274.469 108.068 274.207C108.068 273.684 107.809 273.422 107.289 273.422ZM99.4953 262.956C100.015 262.956 100.275 262.433 100.275 262.171C100.275 261.648 99.7551 261.386 99.4953 261.386C98.9757 261.386 98.716 261.648 98.716 262.171C98.716 262.433 98.9757 262.956 99.4953 262.956ZM101.833 262.956C102.353 262.956 102.613 262.433 102.613 262.171C102.613 261.648 102.093 261.386 101.833 261.386C101.314 261.386 101.054 261.648 101.054 262.171C100.794 262.433 101.314 262.956 101.833 262.956ZM84.1678 268.451C84.1678 266.881 83.6483 266.096 82.6091 266.096C81.57 266.096 80.7906 266.881 80.7906 268.451C80.7906 270.021 81.3102 270.806 82.6091 270.806C83.6483 270.806 84.1678 270.021 84.1678 268.451ZM85.207 266.096C85.4668 266.881 85.7266 267.666 85.7266 268.974C85.7266 269.236 85.7266 269.759 85.7266 270.282C85.7266 270.806 85.7266 271.067 85.7266 271.329C85.7266 272.376 85.4668 273.422 84.9472 273.946C84.4276 274.73 83.3885 274.992 82.3493 274.992C81.57 274.992 80.7906 274.73 80.271 274.469L79.4916 272.899C80.5308 273.422 81.3102 273.422 82.0895 273.422C83.3885 273.422 83.908 272.637 84.1678 271.329C83.6483 271.591 83.1287 271.852 82.6091 271.852C81.57 271.852 80.5308 271.329 80.0112 270.544C79.4917 270.021 79.2319 268.974 79.2319 267.928C79.2319 266.881 79.4917 266.096 80.0112 265.311C80.5308 264.526 81.3102 264.003 82.6091 264.003C83.908 264.526 84.6874 265.049 85.207 266.096ZM76.1144 261.648V271.329C76.1144 272.114 75.8546 272.637 75.335 273.161C74.8155 273.422 74.2959 273.684 73.2567 273.684C71.9578 273.684 71.1784 273.422 70.6589 272.637C70.1393 272.114 69.8795 270.806 69.8795 269.497L68.3208 270.021C68.5806 271.852 68.8403 272.899 69.6197 273.684C70.3991 274.73 71.698 274.992 73.2567 274.992C76.3742 274.992 77.6731 273.684 77.6731 271.329V261.125L76.1144 261.648ZM61.3065 271.852H62.8652V261.125L61.3065 261.648V271.852ZM35.8473 268.451C35.8473 267.666 35.8473 267.143 35.5875 266.881C35.3277 266.358 34.8081 266.096 34.2886 266.096C33.2494 266.096 32.47 266.881 32.47 268.713C32.47 270.021 32.9896 270.806 34.2886 270.806H35.8473V268.451ZM57.9293 261.648L59.488 261.125V268.974C59.488 269.759 59.2282 270.544 58.7086 271.067C58.189 271.591 57.4097 271.852 56.3705 271.852H37.1462C36.8864 272.637 36.6267 273.422 36.1071 274.207C35.5875 274.73 34.5483 275.254 33.769 275.254C32.9896 275.254 32.2103 274.992 31.6907 274.73L30.9113 273.161C31.9505 273.684 32.7298 273.684 33.5092 273.684C34.5483 273.684 35.3277 272.899 35.5875 271.852H34.2886C33.2494 271.852 32.2103 271.591 31.6907 270.806C31.1711 270.282 30.9113 269.497 30.9113 268.451C30.9113 267.404 31.1711 266.358 31.6907 265.834C32.2103 265.049 33.2494 264.526 34.2886 264.526C36.3669 264.526 37.406 265.834 37.406 268.451C37.406 268.974 37.406 269.759 37.406 270.544H49.3563C49.3563 269.759 49.3563 268.974 49.3563 268.713C49.3563 267.928 49.0965 267.404 48.5769 267.143C48.0573 266.619 47.278 266.358 46.2388 266.358C44.9399 266.358 44.1605 266.881 43.3811 267.666L42.342 266.619L47.5377 261.125H49.616L45.979 264.788C46.2388 264.788 46.4986 264.788 46.7584 264.788C48.0573 264.788 49.0965 265.049 49.8758 265.834C50.6552 266.619 51.1748 267.666 51.1748 268.713C51.1748 268.974 51.1748 269.497 51.1748 270.021H56.3705C57.4097 270.021 57.9293 269.497 57.9293 268.451V261.648ZM5.19232 265.573H3.63359C2.85423 265.573 2.59444 265.834 2.33465 266.096C2.07486 266.358 2.07486 267.143 2.07486 267.928C2.07486 268.713 2.07486 269.236 2.33465 269.759C2.59444 270.282 3.11401 270.544 3.63359 270.544C4.41295 270.544 4.67274 270.282 4.93253 269.759C5.19232 269.497 5.19232 268.713 5.19232 267.928V265.573ZM27.7939 264.788L29.3526 264.265V268.713C29.3526 269.497 29.0928 270.282 28.5732 270.806C28.0536 271.329 27.2743 271.591 26.2351 271.591H24.1568C23.1177 271.591 22.3383 271.329 21.8187 270.806C21.2992 271.329 20.5198 271.591 19.4806 271.591H17.6621C16.623 271.591 15.8436 271.329 15.324 270.806C14.8045 271.329 14.0251 271.591 12.986 271.591H8.30977C7.01083 271.591 6.23147 271.329 5.71189 270.544C5.4521 271.329 4.67274 271.852 3.3738 271.852C1.2955 271.852 0.256348 270.544 0.256348 267.928C0.256348 265.573 1.2955 264.265 3.3738 264.265H6.75104V268.713C6.75104 269.759 7.27062 270.282 8.30977 270.282H12.7262C13.7653 270.282 14.2849 269.759 14.2849 268.713V264.788L15.8436 264.265V268.713C15.8436 269.759 16.3632 270.282 17.4023 270.282H18.9611C20.0002 270.282 20.5198 269.759 20.5198 268.713V264.788L22.0785 264.265V268.713C22.0785 269.759 22.5981 270.282 23.6373 270.282H25.4558C26.4949 270.282 27.0145 269.759 27.0145 268.713V264.788H27.7939ZM25.7156 273.422C25.196 273.422 24.9362 273.684 24.9362 274.207C24.9362 274.73 25.4558 274.992 25.7156 274.992C26.2351 274.992 26.4949 274.469 26.4949 274.207C26.7547 273.684 26.2351 273.422 25.7156 273.422ZM28.0536 273.422C27.5341 273.422 27.2743 273.684 27.2743 274.207C27.2743 274.73 27.7939 274.992 28.0536 274.992C28.5732 274.992 28.833 274.469 28.833 274.207C28.833 273.684 28.5732 273.422 28.0536 273.422ZM22.8579 262.956C23.3775 262.956 23.6373 262.433 23.6373 262.171C23.6373 261.648 23.1177 261.386 22.8579 261.386C22.3383 261.386 22.0785 261.648 22.0785 262.171C22.0785 262.433 22.5981 262.956 22.8579 262.956ZM20.7796 262.956C21.2992 262.956 21.559 262.433 21.559 262.171C21.559 261.648 21.0394 261.386 20.7796 261.386C20.26 261.386 20.0002 261.648 20.0002 262.171C19.7404 262.433 20.26 262.956 20.7796 262.956ZM14.2849 273.422C13.7653 273.422 13.5055 273.684 13.5055 274.207C13.5055 274.73 13.7653 274.992 14.2849 274.992C14.8045 274.992 15.0643 274.469 15.0643 274.207C15.0643 273.684 14.8045 273.422 14.2849 273.422ZM16.623 273.422C16.1034 273.422 15.8436 273.684 15.8436 274.207C15.8436 274.73 16.1034 274.992 16.623 274.992C17.1426 274.992 17.4023 274.469 17.4023 274.207C17.4023 273.684 16.8828 273.422 16.623 273.422ZM2.85423 262.956C3.3738 262.956 3.63359 262.433 3.63359 262.171C3.63359 261.648 3.11401 261.386 2.85423 261.386C2.33465 261.386 2.07486 261.648 2.07486 262.171C2.07486 262.433 2.33465 262.956 2.85423 262.956ZM4.41295 261.91C4.41295 261.386 4.67274 261.125 5.19232 261.125C5.71189 261.125 5.97168 261.386 5.97168 261.91C5.97168 262.433 5.45211 262.695 5.19232 262.695C4.93253 262.695 4.41295 262.433 4.41295 261.91Z" fill="white"/>
<path d="M292.518 284.15V289.122H290.959V284.674C290.959 284.15 290.699 283.627 290.699 283.366C290.439 283.104 290.18 283.104 289.66 283.104C289.4 283.104 289.14 283.104 288.881 283.366C288.621 283.366 288.621 283.627 288.361 283.889C288.101 284.15 288.101 284.15 288.101 284.412C288.101 284.674 288.101 284.935 288.101 285.197V289.383H286.543V282.319H288.101V283.366C288.361 283.104 288.621 282.581 289.14 282.319C289.4 282.057 289.92 282.057 290.439 282.057C291.219 282.057 291.738 282.319 292.258 282.581C292.258 282.842 292.518 283.366 292.518 284.15ZM283.425 286.505C283.425 286.767 283.165 287.029 283.165 287.29C282.906 287.552 282.906 287.814 282.646 287.814C282.386 288.075 282.126 288.075 281.607 288.075C281.347 288.075 280.827 288.075 280.567 287.814C280.308 287.552 280.048 287.552 280.048 287.29C279.788 287.029 279.788 286.767 279.788 286.505C279.788 286.244 279.788 285.982 279.788 285.72C279.788 285.459 279.788 285.197 279.788 284.935C279.788 284.674 280.048 284.412 280.048 284.15C280.308 283.889 280.308 283.627 280.567 283.627C280.827 283.366 281.087 283.366 281.607 283.366C281.866 283.366 282.386 283.366 282.646 283.627C282.906 283.889 283.165 283.889 283.165 284.15C283.425 284.412 283.425 284.674 283.425 284.935C283.425 285.197 283.425 285.459 283.425 285.72C283.425 285.982 283.425 286.244 283.425 286.505ZM283.945 282.842C283.685 282.581 283.165 282.319 282.906 282.057C282.386 281.796 281.866 281.796 281.347 281.796C280.827 281.796 280.308 281.796 279.788 282.057C279.269 282.319 279.009 282.581 278.749 282.842C278.489 283.104 278.229 283.627 277.97 283.889C277.71 284.412 277.71 284.935 277.71 285.459C277.71 285.982 277.71 286.505 277.97 287.029C278.229 287.552 278.489 287.814 278.749 288.075C279.009 288.337 279.528 288.598 279.788 288.86C280.308 289.122 280.827 289.122 281.347 289.122C281.866 289.122 282.386 289.122 282.906 288.86C283.425 288.598 283.685 288.337 283.945 288.075C284.204 287.814 284.464 287.29 284.724 287.029C284.984 286.505 284.984 285.982 284.984 285.459C284.984 284.935 284.984 284.412 284.724 283.889C284.724 283.627 284.464 283.104 283.945 282.842ZM274.852 282.057H276.411V289.122H274.852V282.057ZM274.852 279.441H276.411V281.011H274.852V279.441ZM272.254 282.057H273.553V283.104H272.254V286.767C272.254 287.029 272.254 287.029 272.254 287.29V287.552C272.254 287.552 272.254 287.814 272.514 287.814C272.514 287.814 272.774 287.814 273.034 287.814H273.293H273.553V289.122C273.293 289.122 273.293 289.122 273.034 289.122C272.774 289.122 272.774 289.122 272.514 289.122C271.994 289.122 271.735 289.122 271.475 289.122C271.215 289.122 270.955 288.86 270.955 288.86C270.955 288.86 270.696 288.598 270.696 288.337C270.696 288.075 270.696 287.814 270.696 287.552V283.366H269.397V282.319H270.696V280.226H272.254V282.057ZM267.058 286.767C267.058 287.029 267.058 287.29 266.799 287.29C266.799 287.552 266.539 287.552 266.279 287.814C266.019 287.814 266.019 288.075 265.76 288.075C265.5 288.075 265.5 288.075 265.24 288.075C264.98 288.075 264.98 288.075 264.72 288.075C264.461 288.075 264.461 288.075 264.201 287.814C263.941 287.814 263.941 287.552 263.941 287.552C263.941 287.552 263.681 287.29 263.681 287.029C263.681 286.767 263.681 286.767 263.681 286.505C263.681 286.244 263.941 286.244 263.941 286.244C263.941 286.244 264.201 285.982 264.461 285.982C264.72 285.982 264.72 285.982 264.98 285.982C265.24 285.982 265.76 285.982 266.019 285.72C266.279 285.72 266.539 285.72 266.799 285.459V286.767H267.058ZM268.877 288.075C268.617 288.075 268.617 288.075 268.617 288.075C268.617 288.075 268.617 287.814 268.617 287.552V283.889C268.617 283.627 268.617 283.104 268.357 282.842C268.098 282.581 268.098 282.319 267.578 282.319C267.318 282.057 267.059 282.057 266.539 282.057C266.279 282.057 265.76 282.057 265.5 282.057C264.98 282.057 264.72 282.057 264.461 282.057C264.201 282.057 263.681 282.319 263.421 282.319C263.162 282.581 262.902 282.842 262.642 283.104C262.382 283.366 262.382 283.889 262.382 284.15H263.941C263.941 283.889 264.201 283.366 264.461 283.366C264.72 283.104 264.98 283.104 265.5 283.104C265.76 283.104 265.76 283.104 266.019 283.104C266.279 283.104 266.279 283.104 266.539 283.366C266.799 283.366 266.799 283.627 266.799 283.627C266.799 283.627 267.058 283.889 267.058 284.15C267.058 284.412 267.058 284.674 266.799 284.674C266.799 284.674 266.539 284.935 266.279 284.935C266.019 284.935 265.76 284.935 265.5 284.935C265.24 284.935 264.98 284.935 264.72 284.935C264.461 284.935 263.941 284.935 263.681 285.197C263.421 285.459 263.162 285.459 262.902 285.459C262.642 285.72 262.382 285.72 262.382 285.982C262.123 286.244 262.123 286.505 262.123 287.029C262.123 287.29 262.123 287.552 262.382 287.814C262.642 288.075 262.642 288.337 262.902 288.337C263.162 288.598 263.421 288.598 263.681 288.598C263.941 288.598 264.201 288.86 264.72 288.86C265.24 288.86 265.5 288.86 266.019 288.598C266.539 288.337 266.799 288.337 267.058 287.814C267.058 288.075 267.318 288.337 267.578 288.598C267.838 288.598 268.098 288.86 268.357 288.86H268.617H268.877H269.137H269.397V287.814C269.137 288.075 269.137 288.075 268.877 288.075ZM261.603 281.796C261.603 281.796 261.863 281.796 261.603 281.796L261.863 283.366H261.603H261.343C261.083 283.366 260.824 283.366 260.564 283.627C260.304 283.627 260.044 283.889 260.044 284.15C259.784 284.412 259.784 284.674 259.525 284.935C259.525 285.197 259.265 285.459 259.265 285.982V289.383H257.706V282.319H259.265V283.627C259.265 283.366 259.525 283.366 259.525 283.104C259.784 282.842 259.784 282.842 260.044 282.581C260.304 282.319 260.564 282.319 260.564 282.319C260.824 282.319 261.083 282.057 261.343 282.057C261.343 281.796 261.603 281.796 261.603 281.796ZM254.589 286.505C254.589 286.767 254.329 287.029 254.329 287.29C254.069 287.552 254.069 287.814 253.809 287.814C253.55 288.075 253.29 288.075 253.03 288.075C252.77 288.075 252.251 288.075 251.991 287.814C251.731 287.552 251.471 287.552 251.471 287.29C251.211 287.029 251.211 286.767 251.211 286.505C251.211 286.244 251.211 285.982 251.211 285.72C251.211 285.459 251.211 285.197 251.211 284.935C251.211 284.674 251.471 284.412 251.471 284.15C251.731 283.889 251.731 283.627 251.991 283.627C252.251 283.627 252.51 283.366 253.03 283.366C253.29 283.366 253.809 283.366 253.809 283.627C254.069 283.889 254.329 283.889 254.329 284.15C254.589 284.412 254.589 284.674 254.589 284.935C254.589 285.197 254.589 285.459 254.589 285.72C254.848 285.982 254.848 286.244 254.589 286.505ZM255.368 282.842C255.108 282.581 254.589 282.319 254.329 282.057C253.809 281.796 253.29 281.796 252.77 281.796C252.251 281.796 251.731 281.796 251.211 282.057C250.692 282.319 250.432 282.581 250.172 282.842C249.912 283.104 249.653 283.627 249.393 283.889C249.133 284.412 249.133 284.935 249.133 285.459C249.133 285.982 249.133 286.505 249.393 287.029C249.653 287.552 249.912 287.814 250.172 288.075C250.432 288.337 250.952 288.598 251.211 288.86C251.731 289.122 252.251 289.122 252.77 289.122C253.29 289.122 253.809 289.122 254.329 288.86C254.848 288.598 255.108 288.337 255.368 288.075C255.628 287.814 255.888 287.29 256.147 287.029C256.407 286.505 256.407 285.982 256.407 285.459C256.407 284.935 256.407 284.412 256.147 283.889C255.888 283.627 255.628 283.104 255.368 282.842ZM246.535 286.505C246.535 286.767 246.275 287.029 246.275 287.29C246.016 287.552 246.016 287.814 245.756 287.814C245.496 288.075 245.236 288.075 244.717 288.075C244.457 288.075 244.197 288.075 243.937 287.814C243.678 287.814 243.418 287.552 243.418 287.29C243.158 287.029 243.158 286.767 242.898 286.505C242.898 286.244 242.898 285.982 242.898 285.459C242.898 284.674 243.158 284.15 243.418 283.627C243.678 283.104 244.197 282.842 244.977 282.842C245.236 282.842 245.496 282.842 245.756 283.104C246.016 283.366 246.275 283.366 246.275 283.627C246.535 283.889 246.535 284.15 246.535 284.412C246.535 284.674 246.535 284.935 246.535 285.459C246.535 285.982 246.535 286.244 246.535 286.505ZM247.315 282.842C247.055 282.581 246.795 282.319 246.275 282.057C245.756 281.796 245.236 281.796 244.717 281.796C244.197 281.796 243.937 281.796 243.418 282.057C242.898 282.319 242.638 282.581 242.379 282.842V281.796H240.82V291.477H242.379V288.075C242.379 288.337 242.638 288.337 242.898 288.598C243.158 288.86 243.158 288.86 243.418 288.86C243.678 288.86 243.937 289.122 244.197 289.122C244.457 289.122 244.717 289.122 244.977 289.122C245.496 289.122 246.016 289.122 246.275 288.86C246.535 288.598 247.055 288.337 247.315 288.075C247.574 287.814 247.834 287.29 247.834 286.767C247.834 286.244 248.094 285.982 248.094 285.459C248.094 284.935 248.094 284.412 247.834 283.889C247.834 283.627 247.574 283.366 247.315 282.842ZM240.3 281.796L240.56 283.366H240.3H240.041C239.781 283.366 239.521 283.366 239.261 283.627C239.001 283.627 238.742 283.889 238.742 284.15C238.482 284.412 238.482 284.674 238.222 284.935C238.222 285.197 237.962 285.459 237.962 285.982V289.383H236.404V282.319H237.962V283.627C237.962 283.366 238.222 283.366 238.222 283.104C238.482 282.842 238.482 282.842 238.742 282.581C239.001 282.319 239.261 282.319 239.261 282.319C239.521 282.319 239.781 282.057 240.041 282.057C240.041 281.796 240.041 281.796 240.3 281.796ZM233.286 286.505C233.286 286.767 233.026 287.029 233.026 287.29C232.766 287.552 232.766 287.814 232.507 287.814C232.247 288.075 231.987 288.075 231.468 288.075C231.208 288.075 230.688 288.075 230.428 287.814C230.169 287.552 229.909 287.552 229.909 287.29C229.649 287.029 229.649 286.767 229.649 286.505C229.649 286.244 229.649 285.982 229.649 285.72C229.649 285.459 229.649 285.197 229.649 284.935C229.649 284.674 229.909 284.412 229.909 284.15C230.169 283.889 230.169 283.627 230.428 283.627C230.688 283.627 230.948 283.366 231.468 283.366C231.727 283.366 232.247 283.366 232.507 283.627C232.766 283.889 233.026 283.889 233.026 284.15C233.286 284.412 233.286 284.674 233.286 284.935C233.286 285.197 233.286 285.459 233.286 285.72C233.286 285.982 233.286 286.244 233.286 286.505ZM234.065 282.842C233.806 282.581 233.286 282.319 233.026 282.057C232.507 281.796 231.987 281.796 231.468 281.796C230.948 281.796 230.428 281.796 229.909 282.057C229.389 282.319 229.129 282.581 228.87 282.842C228.61 283.104 228.35 283.627 228.09 283.889C227.831 284.412 227.831 284.935 227.831 285.459C227.831 285.982 227.831 286.505 228.09 287.029C228.35 287.552 228.61 287.814 228.87 288.075C229.129 288.337 229.649 288.598 229.909 288.86C230.428 289.122 230.948 289.122 231.468 289.122C231.987 289.122 232.507 289.122 233.026 288.86C233.546 288.598 233.806 288.337 234.065 288.075C234.325 287.814 234.585 287.29 234.845 287.029C235.105 286.505 235.105 285.982 235.105 285.459C235.105 284.935 235.105 284.412 234.845 283.889C234.585 283.627 234.325 283.104 234.065 282.842ZM224.973 285.459H226.532C226.532 285.982 226.272 286.505 226.272 287.029C226.012 287.552 225.752 287.814 225.492 288.337C225.233 288.598 224.713 288.86 224.193 289.122C223.674 289.383 223.154 289.383 222.635 289.383C221.855 289.383 221.336 289.122 220.556 288.86C220.037 288.598 219.517 288.337 218.998 287.814C218.478 287.29 218.218 286.767 217.959 286.244C217.699 285.72 217.699 284.935 217.699 284.15C217.699 283.366 217.699 282.842 217.959 282.057C218.218 281.534 218.478 281.011 218.998 280.487C219.517 279.964 219.777 279.702 220.556 279.441C221.076 279.179 221.855 278.917 222.635 278.917C223.154 278.917 223.674 278.917 224.193 279.179C224.713 279.441 225.233 279.441 225.492 279.964C225.752 280.226 226.272 280.487 226.272 281.011C226.532 281.534 226.532 281.796 226.791 282.319H224.973C224.973 282.057 224.713 281.796 224.713 281.534C224.713 281.272 224.453 281.011 224.193 281.011C223.934 280.749 223.674 280.749 223.414 280.487C223.154 280.487 222.895 280.226 222.375 280.226C221.855 280.226 221.336 280.226 221.076 280.487C220.816 280.749 220.297 281.011 220.037 281.272C219.777 281.534 219.517 282.057 219.517 282.581C219.517 283.104 219.258 283.366 219.258 283.889C219.258 284.412 219.258 284.935 219.517 285.197C219.517 285.72 219.777 285.982 220.037 286.505C220.297 286.767 220.556 287.029 221.076 287.29C221.336 287.552 221.855 287.552 222.375 287.552C222.635 287.552 223.154 287.552 223.414 287.29C223.674 287.029 223.934 287.029 224.193 286.767C224.453 286.505 224.453 286.244 224.713 285.982C224.973 285.982 224.973 285.72 224.973 285.459ZM211.983 282.319C212.503 282.581 212.503 283.366 212.503 284.15V289.122H210.944V284.935C210.944 284.674 210.944 284.412 210.944 284.15C210.944 283.889 210.944 283.627 210.685 283.627C210.685 283.366 210.425 283.366 210.165 283.366C209.905 283.366 209.645 283.104 209.386 283.104C208.866 283.104 208.346 283.366 208.346 283.627C208.087 283.889 208.087 284.412 208.087 284.935V289.122H206.528V284.674C206.528 284.15 206.528 283.889 206.268 283.627C206.008 283.366 205.749 283.366 205.229 283.366C204.969 283.366 204.709 283.366 204.709 283.366C204.45 283.366 204.45 283.627 204.19 283.627C203.93 283.889 203.93 283.889 203.93 284.15C203.93 284.412 203.93 284.674 203.93 284.935V289.122H202.371V282.057H203.93V283.104C203.93 282.842 204.19 282.842 204.19 282.581C204.45 282.319 204.45 282.319 204.709 282.319C204.969 282.319 204.969 282.057 205.229 282.057C205.489 282.057 205.749 282.057 206.008 282.057C206.528 282.057 206.788 282.057 207.307 282.319C207.567 282.581 207.827 282.842 208.087 283.104C208.346 282.842 208.606 282.581 209.126 282.319C209.386 282.057 209.905 282.057 210.425 282.057C210.944 281.796 211.464 282.057 211.983 282.319ZM198.994 282.057H200.553V289.122H198.994V288.075C198.734 288.337 198.474 288.598 198.215 288.86C197.955 289.122 197.435 289.122 197.176 289.122C196.136 289.122 195.617 288.86 195.097 288.337C194.578 287.814 194.578 287.29 194.578 286.244V281.796H196.136V286.244C196.136 286.767 196.136 287.29 196.396 287.552C196.656 287.814 196.916 287.814 197.435 287.814C197.695 287.814 197.955 287.814 198.215 287.552C198.474 287.552 198.734 287.29 198.734 287.029C198.994 286.767 198.994 286.767 198.994 286.505C198.994 286.244 198.994 285.982 198.994 285.72V282.057ZM187.823 284.935C187.823 284.674 187.823 284.412 188.083 284.15C188.343 283.889 188.343 283.627 188.343 283.627C188.603 283.366 188.603 283.366 188.862 283.104C189.122 283.104 189.382 282.842 189.642 282.842C189.901 282.842 190.161 282.842 190.421 283.104C190.681 283.104 190.941 283.366 190.941 283.627C191.2 283.889 191.2 283.889 191.2 284.15C191.2 284.412 191.46 284.674 191.46 284.935H187.823ZM192.499 283.104C192.24 282.842 191.72 282.319 191.46 282.057C190.941 281.796 190.421 281.796 189.901 281.796C189.382 281.796 188.862 281.796 188.343 282.057C187.823 282.319 187.563 282.581 187.304 282.842C187.044 283.104 186.784 283.627 186.524 284.15C186.264 284.674 186.264 285.197 186.264 285.459C186.264 285.982 186.264 286.505 186.524 287.029C186.784 287.552 186.784 287.814 187.304 288.075C187.823 288.337 188.083 288.598 188.343 288.86C188.862 289.122 189.382 289.122 189.901 289.122C190.161 289.122 190.681 289.122 190.941 288.86C191.2 288.86 191.72 288.598 191.98 288.337C192.24 288.075 192.499 287.814 192.759 287.552C193.019 287.29 193.019 287.029 193.279 286.505H191.72C191.46 286.767 191.46 287.29 191.2 287.29C190.941 287.552 190.681 287.552 190.161 287.552C189.901 287.552 189.642 287.552 189.382 287.29C189.122 287.29 188.862 287.029 188.862 286.767C188.862 286.505 188.603 286.244 188.603 285.982C188.603 285.72 188.603 285.459 188.603 285.197H193.798C193.798 284.674 193.798 284.15 193.798 283.627C193.019 283.889 192.759 283.627 192.499 283.104ZM183.407 279.441H184.966V289.122H183.407V279.441ZM180.289 286.505C180.289 286.767 180.03 287.029 180.03 287.29C179.77 287.552 179.77 287.814 179.51 287.814C179.25 288.075 178.99 288.075 178.471 288.075C178.211 288.075 177.691 288.075 177.432 287.814C177.172 287.552 176.912 287.552 176.912 287.29C176.652 287.029 176.652 286.767 176.652 286.505C176.652 286.244 176.652 285.982 176.652 285.72C176.652 285.459 176.652 285.197 176.652 284.935C176.652 284.674 176.912 284.412 176.912 284.15C177.172 283.889 177.172 283.627 177.432 283.627C177.691 283.366 177.951 283.366 178.471 283.366C178.731 283.366 179.25 283.366 179.51 283.627C179.77 283.889 180.03 283.889 180.03 284.15C180.289 284.412 180.289 284.674 180.289 284.935C180.289 285.197 180.289 285.459 180.289 285.72C180.549 285.982 180.549 286.244 180.289 286.505ZM181.069 282.842C180.809 282.581 180.289 282.319 180.03 282.057C179.51 281.796 178.99 281.796 178.471 281.796C177.951 281.796 177.432 281.796 176.912 282.057C176.393 282.319 176.133 282.581 175.873 282.842C175.613 283.104 175.353 283.627 175.094 283.889C174.834 284.412 174.834 284.935 174.834 285.459C174.834 285.982 174.834 286.505 175.094 287.029C175.353 287.552 175.613 287.814 175.873 288.075C176.133 288.337 176.652 288.598 176.912 288.86C177.432 289.122 177.951 289.122 178.471 289.122C178.99 289.122 179.51 289.122 180.03 288.86C180.549 288.598 180.809 288.337 181.069 288.075C181.328 287.814 181.588 287.29 181.848 287.029C182.108 286.505 182.108 285.982 182.108 285.459C182.108 284.935 182.108 284.412 181.848 283.889C181.588 283.627 181.328 283.104 181.069 282.842ZM174.574 281.796L174.834 283.366H174.574H174.314C174.054 283.366 173.795 283.366 173.535 283.627C173.275 283.627 173.015 283.889 173.015 284.15C172.755 284.412 172.756 284.674 172.496 284.935C172.496 285.197 172.236 285.459 172.236 285.982V289.383H170.677V282.319H172.236V283.627C172.236 283.366 172.496 283.366 172.496 283.104C172.756 282.842 172.755 282.842 173.015 282.581C173.275 282.319 173.535 282.319 173.535 282.319C173.795 282.319 174.054 282.057 174.314 282.057C174.314 281.796 174.574 281.796 174.574 281.796ZM168.079 282.057H169.378V283.104H168.079V286.767C168.079 287.029 168.079 287.029 168.079 287.29V287.552C168.079 287.552 168.079 287.814 168.339 287.814C168.339 287.814 168.599 287.814 168.859 287.814H169.118H169.378V289.122C169.118 289.122 169.118 289.122 168.859 289.122C168.599 289.122 168.599 289.122 168.339 289.122C167.82 289.122 167.56 289.122 167.3 289.122C167.04 289.122 166.78 288.86 166.78 288.86C166.78 288.86 166.521 288.598 166.521 288.337C166.521 288.075 166.521 287.814 166.521 287.552V283.366H165.222V282.319H166.521V280.226H168.079V282.057ZM159.506 284.935C159.506 284.674 159.506 284.412 159.766 284.15C159.766 283.889 160.026 283.627 160.026 283.627C160.286 283.366 160.286 283.366 160.545 283.104C160.805 283.104 161.065 282.842 161.325 282.842C161.585 282.842 161.844 282.842 162.104 283.104C162.364 283.104 162.624 283.366 162.624 283.627C162.884 283.889 162.884 283.889 162.884 284.15C162.884 284.412 163.143 284.674 163.143 284.935H159.506ZM163.923 283.104C163.663 282.842 163.143 282.319 162.884 282.057C162.364 281.796 161.844 281.796 161.325 281.796C160.805 281.796 160.286 281.796 159.766 282.057C159.247 282.319 158.987 282.581 158.727 282.842C158.467 283.104 158.207 283.627 157.948 284.15C157.688 284.674 157.688 285.197 157.688 285.459C157.688 285.982 157.688 286.505 157.948 287.029C158.207 287.552 158.207 287.814 158.727 288.075C158.987 288.337 159.506 288.598 159.766 288.86C160.286 289.122 160.805 289.122 161.325 289.122C161.585 289.122 162.104 289.122 162.364 288.86C162.624 288.86 163.143 288.598 163.403 288.337C163.663 288.075 163.923 287.814 164.182 287.552C164.442 287.29 164.442 287.029 164.702 286.505H163.143C162.884 286.767 162.884 287.29 162.624 287.29C162.364 287.552 161.844 287.552 161.585 287.552C161.325 287.552 161.065 287.552 160.805 287.29C160.545 287.29 160.286 287.029 160.286 286.767C160.026 286.505 160.026 286.244 160.026 285.982C160.026 285.72 160.026 285.459 160.026 285.197H165.222C165.222 284.674 165.222 284.15 165.222 283.627C164.442 283.889 164.442 283.627 163.923 283.104ZM155.09 283.104C155.09 283.366 154.83 283.366 154.57 283.627C154.311 283.627 154.311 283.889 154.051 283.889C153.791 283.889 153.531 283.889 153.531 283.889H150.933V280.749H153.531C153.791 280.749 154.051 280.749 154.051 280.749C154.311 280.749 154.311 280.749 154.57 281.011C154.83 281.011 154.83 281.272 154.83 281.534C154.83 281.796 155.09 282.057 155.09 282.319C155.35 282.581 155.35 282.842 155.09 283.104ZM156.389 280.487C156.129 280.226 155.869 279.964 155.35 279.702C154.83 279.441 154.311 279.441 153.531 279.441H149.115V289.122H150.933V285.459H153.531C154.311 285.459 154.83 285.459 155.35 285.197C155.869 284.935 156.129 284.674 156.389 284.412C156.649 284.15 156.908 283.889 156.908 283.366C156.908 283.104 157.168 282.581 157.168 282.319C157.168 282.057 157.168 281.796 156.908 281.272C156.908 281.011 156.649 280.749 156.389 280.487ZM142.62 282.057H143.919V283.104H142.62V286.767C142.62 287.029 142.62 287.029 142.62 287.29V287.552C142.62 287.552 142.62 287.814 142.88 287.814C142.88 287.814 143.14 287.814 143.399 287.814H143.659H143.919V289.122C143.659 289.122 143.659 289.122 143.399 289.122C143.14 289.122 143.14 289.122 142.88 289.122C142.36 289.122 142.101 289.122 141.841 289.122C141.581 289.122 141.321 288.86 141.321 288.86C141.061 288.598 141.061 288.598 141.061 288.337C141.061 288.075 141.061 287.814 141.061 287.552V283.366H139.762V282.319H141.061V280.226H142.62V282.057ZM137.424 282.057H138.983V289.122H137.424V282.057ZM137.424 279.441H138.983V281.011H137.424V279.441ZM134.047 286.767C134.047 287.029 134.047 287.29 133.787 287.29C133.787 287.552 133.528 287.552 133.268 287.814C133.008 287.814 133.008 288.075 132.748 288.075C132.488 288.075 132.229 288.075 132.229 288.075C131.969 288.075 131.969 288.075 131.709 288.075C131.449 288.075 131.449 288.075 131.189 287.814C130.93 287.814 130.93 287.552 130.93 287.552C130.93 287.552 130.67 287.29 130.67 287.029C130.67 286.767 130.67 286.767 130.67 286.505C130.67 286.244 130.93 286.244 130.93 286.244C130.93 286.244 131.189 285.982 131.449 285.982C131.709 285.982 131.709 285.982 131.969 285.982C132.229 285.982 132.748 285.982 133.008 285.72C133.268 285.72 133.528 285.72 133.787 285.459V286.767H134.047ZM136.125 288.075C135.866 288.075 135.866 288.075 135.866 288.075C135.866 288.075 135.866 287.814 135.866 287.552V283.889C135.866 283.627 135.866 283.104 135.606 282.842C135.346 282.581 135.346 282.319 134.826 282.319C134.567 282.057 134.307 282.057 133.787 282.057C133.528 282.057 133.008 282.057 132.748 282.057C132.229 282.057 131.969 282.057 131.709 282.057C131.449 282.057 130.93 282.319 130.67 282.319C130.41 282.581 130.15 282.842 129.891 283.104C129.631 283.366 129.631 283.889 129.631 284.15H131.189C131.189 283.889 131.449 283.366 131.709 283.366C131.969 283.104 132.229 283.104 132.748 283.104C133.008 283.104 133.008 283.104 133.268 283.104C133.528 283.104 133.528 283.104 133.787 283.366C134.047 283.366 134.047 283.627 134.047 283.627C134.047 283.627 134.307 283.889 134.307 284.15C134.307 284.412 134.307 284.674 134.047 284.674C134.047 284.674 133.787 284.935 133.528 284.935C133.268 284.935 133.008 284.935 132.748 284.935C132.488 284.935 132.229 284.935 131.969 284.935C131.709 284.935 131.189 284.935 130.93 285.197C130.67 285.197 130.41 285.459 130.15 285.459C129.89 285.72 129.631 285.72 129.631 285.982C129.631 286.244 129.371 286.505 129.371 287.029C129.371 287.29 129.371 287.552 129.631 287.814C129.89 288.075 129.89 288.337 130.15 288.337C130.41 288.598 130.67 288.598 130.93 288.598C131.189 288.598 131.449 288.86 131.969 288.86C132.488 288.86 132.748 288.86 133.268 288.598C133.787 288.337 134.047 288.337 134.307 287.814C134.307 288.075 134.567 288.337 134.826 288.598C135.086 288.598 135.346 288.86 135.606 288.86H135.866H136.125H136.385H136.645V287.814C136.385 288.075 136.385 288.075 136.125 288.075ZM127.033 282.057H128.592L126.253 289.122H124.955L123.656 283.889L122.357 289.122H120.798L118.72 282.057H120.278L121.577 287.29L122.876 282.057H124.435L125.734 287.29L127.033 282.057ZM115.862 282.057H117.421V289.122H115.862V288.075C115.602 288.337 115.342 288.598 115.083 288.86C114.823 289.122 114.303 289.122 114.043 289.122C113.004 289.122 112.485 288.86 111.965 288.337C111.446 287.814 111.446 287.29 111.446 286.244V281.796H113.004V286.244C113.004 286.767 113.004 287.29 113.264 287.552C113.524 287.814 113.784 287.814 114.303 287.814C114.563 287.814 114.823 287.814 115.083 287.552C115.342 287.552 115.602 287.29 115.602 287.029C115.862 286.767 115.862 286.767 115.862 286.505C115.862 286.244 115.862 285.982 115.862 285.72V282.057ZM106.25 283.366L110.406 289.122H108.328L105.211 284.412L103.912 285.72V289.122H102.093V279.441H103.912V283.889L108.328 279.441H110.406L106.25 283.366ZM95.8583 279.441C96.3779 279.441 96.6376 279.441 96.8974 279.441V280.749H96.6376C96.6376 280.749 96.3779 280.749 96.1181 280.749C95.8583 280.749 95.5985 280.749 95.5985 281.011C95.3387 281.011 95.3387 281.272 95.3387 281.534V282.319H96.6376V283.366H95.3387V289.383H93.78V283.366H92.481V282.319H93.78V281.796C93.78 281.272 93.78 281.011 94.0398 280.749C94.0398 280.487 94.2996 280.226 94.5593 280.226C94.8191 279.964 95.0789 279.964 95.0789 279.964C95.3387 279.441 95.5985 279.441 95.8583 279.441ZM90.4027 286.505C90.4027 286.767 90.1429 287.029 90.1429 287.29C89.8832 287.552 89.8832 287.814 89.6234 287.814C89.3636 288.075 89.1038 288.075 88.844 288.075C88.5842 288.075 88.0647 288.075 87.8049 287.814C87.5451 287.552 87.2853 287.552 87.2853 287.29C87.0255 287.029 87.0255 286.767 87.0255 286.505C87.0255 286.244 87.0255 285.982 87.0255 285.72C87.0255 285.459 87.0255 285.197 87.0255 284.935C87.0255 284.674 87.2853 284.412 87.2853 284.15C87.5451 283.889 87.5451 283.627 87.8049 283.627C88.0647 283.627 88.3244 283.366 88.844 283.366C89.1038 283.366 89.6234 283.366 89.6234 283.627C89.6234 283.889 90.1429 283.889 90.1429 284.15C90.4027 284.412 90.4027 284.674 90.4027 284.935C90.4027 285.197 90.4027 285.459 90.4027 285.72C90.6625 285.982 90.4027 286.244 90.4027 286.505ZM91.1821 282.842C90.9223 282.581 90.4027 282.319 90.1429 282.057C89.6234 281.796 89.1038 281.796 88.5842 281.796C88.0646 281.796 87.5451 281.796 87.0255 282.057C86.5059 282.319 86.2461 282.581 85.9863 282.842C85.7266 283.104 85.4668 283.627 85.207 283.889C84.9472 284.412 84.9472 284.935 84.9472 285.459C84.9472 285.982 84.9472 286.505 85.207 287.029C85.4668 287.552 85.7266 287.814 85.9863 288.075C86.2461 288.337 86.7657 288.598 87.0255 288.86C87.5451 289.122 88.0646 289.122 88.5842 289.122C89.1038 289.122 89.6234 289.122 90.1429 288.86C90.6625 288.598 90.9223 288.337 91.1821 288.075C91.4419 287.814 91.7017 287.29 91.9615 287.029C92.2213 286.505 92.2213 285.982 92.2213 285.459C92.2213 284.935 92.2213 284.412 91.9615 283.889C91.7017 283.627 91.4419 283.104 91.1821 282.842ZM78.9721 282.057H80.5308L77.6731 289.383C77.6731 289.645 77.4133 289.907 77.4133 290.43C77.4133 290.692 77.1536 290.953 76.8938 291.215C76.634 291.477 76.3742 291.738 76.1144 291.738C75.8546 291.738 75.5948 292 75.0752 292C74.8155 292 74.2959 292 74.0361 292V290.692H74.2959H74.5557C74.8155 290.692 74.8155 290.692 75.0752 290.692C75.0752 290.692 75.335 290.692 75.335 290.43C75.335 290.168 75.5948 290.168 75.5948 290.168C75.5948 290.168 75.5948 289.907 75.8546 289.645L76.1144 289.122L73.5165 282.319V283.366H73.2567H72.9969C72.7372 283.366 72.4774 283.366 72.2176 283.627C71.9578 283.627 71.698 283.889 71.698 284.15C71.4382 284.412 71.4382 284.674 71.1784 284.935C71.1784 285.197 70.9186 285.459 70.9186 285.982V289.383H69.3599V282.319H70.9186V283.627C70.9186 283.366 71.1784 283.366 71.1784 283.104C71.4382 282.842 71.4382 282.842 71.698 282.581C71.9578 282.319 72.2176 282.319 72.2176 282.319C72.4774 282.319 72.7372 282.057 72.9969 282.057C73.2567 282.057 73.2567 282.057 73.2567 282.057H73.5165V282.319H75.0752L76.8938 287.552L78.9721 282.057ZM66.2425 286.767C66.2425 287.029 66.2425 287.29 65.9827 287.29C65.9827 287.552 65.7229 287.552 65.4631 287.814C65.2033 287.814 65.2033 288.075 64.9435 288.075C64.6837 288.075 64.424 288.075 64.424 288.075C64.1642 288.075 64.1642 288.075 63.9044 288.075C63.6446 288.075 63.6446 288.075 63.3848 287.814C63.125 287.814 63.125 287.552 63.125 287.552C63.125 287.552 62.8652 287.29 62.8652 287.029C62.8652 286.767 62.8652 286.767 62.8652 286.505C62.8652 286.244 63.125 286.244 63.125 286.244C63.125 286.244 63.3848 285.982 63.6446 285.982C63.9044 285.982 63.9044 285.982 64.1642 285.982C64.424 285.982 64.9435 285.982 65.2033 285.72C65.4631 285.72 65.7229 285.72 65.9827 285.459V286.767H66.2425ZM68.061 288.075C67.8012 288.075 67.8012 288.075 67.8012 288.075C67.8012 288.075 67.8012 287.814 67.8012 287.552V283.889C67.8012 283.627 67.8012 283.104 67.5414 282.842C67.2816 282.581 67.2816 282.319 66.762 282.319C66.5023 282.057 66.2425 282.057 65.7229 282.057C65.4631 282.057 64.9435 282.057 64.6837 282.057C64.1642 282.057 63.9044 282.057 63.6446 282.057C63.3848 282.057 62.8652 282.319 62.6054 282.319C62.3456 282.581 62.0859 282.842 61.8261 283.104C61.5663 283.366 61.5663 283.889 61.5663 284.15H63.125C63.125 283.889 63.3848 283.366 63.6446 283.366C63.9044 283.104 64.1642 283.104 64.6837 283.104C64.9435 283.104 64.9435 283.104 65.2033 283.104C65.4631 283.104 65.4631 283.104 65.7229 283.366C65.9827 283.366 65.9827 283.627 65.9827 283.627C65.9827 283.627 66.2425 283.889 66.2425 284.15C66.2425 284.412 66.2425 284.674 65.9827 284.674C65.9827 284.674 65.7229 284.935 65.4631 284.935C65.2033 284.935 64.9435 284.935 64.6837 284.935C64.424 284.935 64.1642 284.935 63.9044 284.935C63.6446 284.935 63.125 284.935 62.8652 285.197C62.6054 285.459 62.3456 285.459 62.0859 285.459C61.8261 285.72 61.5663 285.72 61.5663 285.982C61.3065 286.244 61.3065 286.505 61.3065 287.029C61.3065 287.29 61.3065 287.552 61.5663 287.814C61.8261 288.075 61.8261 288.337 62.0859 288.337C62.3456 288.598 62.6054 288.598 62.8652 288.598C63.125 288.598 63.3848 288.86 63.9044 288.86C64.424 288.86 64.6837 288.86 65.2033 288.598C65.7229 288.337 65.9827 288.337 66.2425 287.814C66.2425 288.075 66.5023 288.337 66.762 288.598C67.0218 288.598 67.2816 288.86 67.5414 288.86H67.8012H68.061H68.3208H68.5806V287.814C68.3208 288.075 68.3208 288.075 68.061 288.075ZM58.4488 282.057H60.0076V289.122H58.4488V282.057ZM58.4488 279.441H60.0076V281.011H58.4488V279.441ZM55.0716 286.505C55.0716 286.767 54.8118 287.029 54.8118 287.29C54.552 287.552 54.552 287.814 54.2922 287.814C54.0324 288.075 53.7726 288.075 53.5129 288.075C53.2531 288.075 52.9933 288.075 52.7335 287.814C52.4737 287.552 52.2139 287.552 52.2139 287.29C51.9541 287.029 51.9541 286.767 51.9541 286.505C51.9541 286.244 51.9541 285.982 51.9541 285.72C51.9541 285.459 51.9541 285.197 51.9541 284.674C51.9541 284.412 52.2139 284.15 52.2139 283.889C52.4737 283.627 52.4737 283.366 52.7335 283.366C52.9933 283.104 53.2531 283.104 53.7726 283.104C54.2922 283.104 54.8118 283.366 55.3314 283.889C55.5912 284.412 55.851 284.935 55.851 285.72C55.0716 285.982 55.0716 286.244 55.0716 286.505ZM55.0716 282.842C54.8118 282.581 54.8118 282.581 54.552 282.319C54.2922 282.057 54.2922 282.057 54.0324 282.057C53.7727 282.057 53.5129 281.796 53.2531 281.796C52.9933 281.796 52.7335 281.796 52.4737 281.796C52.2139 281.796 51.6943 281.796 51.4346 282.057C51.1748 282.319 50.6552 282.319 50.3954 282.842C50.1356 283.104 49.8758 283.627 49.616 283.889C49.3563 284.412 49.3563 284.935 49.3563 285.459C49.3563 285.982 49.3563 286.505 49.616 287.029C49.8758 287.552 49.8758 287.814 50.1356 288.337C50.3954 288.598 50.6552 288.86 51.1748 289.122C51.6943 289.383 52.2139 289.383 52.7335 289.383C53.2531 289.383 53.5129 289.383 54.0324 289.122C54.552 288.86 54.8118 288.598 55.0716 288.337V289.383H56.6303V279.702H55.0716V282.842ZM46.7584 282.057H48.3171V289.122H46.7584V282.057ZM46.7584 279.441H48.3171V281.011H46.7584V279.441ZM45.1996 286.244C45.4594 286.505 45.4594 286.767 45.4594 287.029C45.4594 287.552 45.4594 287.814 45.1996 288.075C44.9399 288.337 44.6801 288.598 44.4203 288.86C44.1605 289.122 43.6409 289.122 43.3811 289.383C43.1213 289.383 42.6018 289.383 42.342 289.383C41.8224 289.383 41.5626 289.383 41.043 289.122C40.7833 289.122 40.2637 288.86 40.0039 288.598C39.7441 288.337 39.4843 288.075 39.2245 287.814C38.9647 287.552 38.9647 287.029 38.9647 286.767H40.5235C40.5235 287.29 40.7833 287.552 41.043 287.814C41.3028 288.075 41.8224 288.075 42.0822 288.075C42.342 288.075 42.342 288.075 42.6018 288.075C42.8616 288.075 42.8616 288.075 43.1213 287.814C43.3811 287.814 43.3811 287.552 43.6409 287.552C43.6409 287.552 43.9007 287.29 43.9007 287.029C43.9007 286.767 43.9007 286.767 43.6409 286.505C43.3811 286.505 43.3811 286.244 43.1213 286.244C42.8616 286.244 42.6018 285.982 42.342 285.982C42.0822 285.982 41.8224 285.982 41.5626 285.72C41.3028 285.72 41.043 285.459 40.7833 285.459C40.5235 285.459 40.2637 285.197 40.0039 285.197C39.7441 284.935 39.7441 284.935 39.4843 284.674C39.2245 284.412 39.2245 284.15 39.2245 283.889C39.2245 283.627 39.2245 283.104 39.4843 282.842C39.7441 282.581 40.0039 282.319 40.2637 282.319C40.5235 282.057 40.7833 282.057 41.3028 282.057C41.5626 282.057 42.0822 282.057 42.342 282.057C42.6018 282.057 43.1213 282.057 43.3811 282.057C43.6409 282.057 43.9007 282.319 44.4203 282.319C44.6801 282.581 44.9399 282.842 45.1996 283.104C45.4594 283.366 45.4594 283.627 45.4594 284.15H43.9007C43.9007 283.889 43.6409 283.627 43.3811 283.366C43.1213 283.366 42.8616 283.104 42.342 283.104C42.342 283.104 42.0822 283.104 41.8224 283.104C41.5626 283.104 41.5626 283.104 41.3028 283.104C41.043 283.104 41.043 283.104 41.043 283.366L40.7833 283.627C40.7833 283.889 40.7833 283.889 41.043 284.15C41.3028 284.15 41.3028 284.412 41.5626 284.412C41.8224 284.412 42.0822 284.674 42.342 284.674C42.6018 284.674 42.8616 284.674 43.1213 284.935C43.3811 284.935 43.6409 285.197 43.9007 285.197C44.1605 285.197 44.4203 285.459 44.6801 285.459C44.9399 285.72 45.1996 285.982 45.1996 286.244ZM36.3669 286.505C36.3669 286.767 36.1071 287.029 36.1071 287.29C35.8473 287.552 35.8473 287.814 35.5875 287.814C35.3277 288.075 35.0679 288.075 34.5483 288.075C34.2886 288.075 34.0288 288.075 33.769 287.814C33.5092 287.814 33.2494 287.552 33.2494 287.29C32.9896 287.029 32.9896 286.767 32.7298 286.505C32.7298 286.244 32.47 285.982 32.47 285.459C32.47 284.674 32.7298 284.15 32.9896 283.627C33.2494 283.104 33.769 282.842 34.5483 282.842C34.8081 282.842 35.0679 282.842 35.3277 283.104C35.5875 283.366 35.8473 283.366 35.8473 283.627C36.1071 283.889 36.1071 284.15 36.1071 284.412C36.1071 284.674 36.1071 284.935 36.1071 285.459C36.6267 285.982 36.6266 286.244 36.3669 286.505ZM37.406 282.842C37.1462 282.581 36.8864 282.319 36.3669 282.057C35.8473 281.796 35.3277 281.796 34.8081 281.796C34.5483 281.796 34.2886 281.796 34.2886 281.796C34.0288 281.796 33.769 281.796 33.769 282.057C33.5092 282.057 33.5092 282.319 33.2494 282.319C32.9896 282.319 32.9896 282.581 32.7298 282.842V279.179H31.1711V288.86H32.7298V287.814C32.7298 288.075 32.9896 288.337 33.2494 288.337C33.5092 288.337 33.5092 288.598 33.769 288.598C34.0288 288.598 34.2886 288.86 34.5483 288.86C34.8081 288.86 35.0679 288.86 35.3277 288.86C35.8473 288.86 36.3669 288.86 36.6266 288.598C36.8864 288.337 37.406 288.075 37.6658 287.814C37.9256 287.552 38.1854 287.029 38.1854 286.505C38.1854 285.982 38.4452 285.72 38.4452 285.197C38.4452 284.674 38.4452 284.15 38.1854 283.627C37.9256 283.627 37.6658 283.366 37.406 282.842ZM27.7939 282.057H29.3526V289.122H27.7939V288.075C27.5341 288.337 27.2743 288.598 27.0145 288.86C26.7547 289.122 26.2351 289.122 25.9753 289.122C24.9362 289.122 24.4166 288.86 23.897 288.337C23.3775 287.814 23.3775 287.29 23.3775 286.244V281.796H24.9362V286.244C24.9362 286.767 24.9362 287.29 25.196 287.552C25.4558 287.814 25.7156 287.814 26.2351 287.814C26.4949 287.814 26.7547 287.814 27.0145 287.552C27.2743 287.552 27.5341 287.29 27.5341 287.029C27.7939 286.767 27.7939 286.767 27.7939 286.505C27.7939 286.244 27.7939 285.982 27.7939 285.72V282.057ZM21.8187 285.459C21.8187 285.72 21.8187 285.982 21.8187 286.244C21.8187 286.767 21.8187 287.29 21.559 287.552C21.2992 287.814 21.0394 288.337 20.7796 288.598C20.5198 288.86 20.0002 289.122 19.4806 289.122C18.9611 289.122 18.4415 289.383 17.9219 289.383C17.4023 289.383 16.8828 289.383 16.3632 289.122C15.8436 288.86 15.324 288.86 15.0643 288.598C14.8045 288.337 14.2849 288.075 14.2849 287.552C14.2849 287.029 14.0251 286.505 14.0251 285.982H15.8436C15.8436 286.244 15.8436 286.767 16.1034 287.029C16.1034 287.29 16.3632 287.552 16.623 287.552C16.8828 287.814 17.1426 287.814 17.4023 287.814C17.6621 287.814 17.9219 287.814 18.4415 287.814C18.7013 287.814 19.2209 287.814 19.4806 287.552C19.7404 287.552 20.0002 287.29 20.0002 287.29C20.26 287.029 20.26 287.029 20.26 286.767C20.26 286.505 20.26 286.505 20.26 286.244C20.26 285.982 20.26 285.72 20.0002 285.459C19.7404 285.197 19.7404 285.197 19.4806 285.197C19.2209 285.197 18.7013 284.935 18.1817 284.935C17.6621 284.935 17.1426 284.674 16.3632 284.412C15.8436 284.412 15.5838 284.15 15.324 283.889C15.0643 283.627 14.8045 283.627 14.5447 283.366C14.2849 283.104 14.2849 282.842 14.2849 282.581C14.2849 282.319 14.2849 282.057 14.2849 281.796C14.2849 281.272 14.2849 280.749 14.5447 280.487C14.8045 280.226 15.0643 279.702 15.324 279.702C15.5838 279.441 16.1034 279.179 16.3632 279.179C16.8828 279.179 17.1426 278.917 17.6621 278.917C18.1817 278.917 18.7013 278.917 19.2209 279.179C19.7404 279.179 20.0002 279.441 20.5198 279.702C20.7796 279.964 21.0394 280.226 21.2992 280.749C21.559 281.011 21.559 281.534 21.559 282.057H19.7404C19.7404 281.534 19.4806 281.011 19.2209 280.749C18.9611 280.487 18.4415 280.487 17.6621 280.487C17.4023 280.487 17.1426 280.487 17.1426 280.487C16.8828 280.487 16.623 280.487 16.623 280.749C16.3632 280.749 16.3632 281.011 16.1034 281.011C16.1034 281.272 15.8436 281.272 15.8436 281.534C15.8436 281.796 15.8436 282.057 16.1034 282.319C16.3632 282.581 16.623 282.581 16.8828 282.842C16.8828 282.842 17.1426 282.842 17.4023 282.842C17.6621 282.842 17.9219 283.104 18.1817 283.104C18.4415 283.104 18.7013 283.366 19.2209 283.366C19.4806 283.366 19.7404 283.627 19.7404 283.627C20.0002 283.627 20.26 283.889 20.5198 284.15C20.7796 284.412 21.0394 284.412 21.0394 284.674C21.559 284.935 21.559 285.197 21.8187 285.459ZM3.3738 285.197L4.93253 281.011L6.49126 285.197H3.3738ZM4.15317 279.441L0.256348 289.122H2.07486L3.11401 286.505H7.01083L8.04998 289.122H9.8685L5.97168 279.441H4.15317Z" fill="white"/>
</svg>
