<?xml version="1.0" standalone="no"?>
<!DOCTYPE svg PUBLIC "-//W3C//DTD SVG 20010904//EN"
 "http://www.w3.org/TR/2001/REC-SVG-20010904/DTD/svg10.dtd">
<svg version="1.0" xmlns="http://www.w3.org/2000/svg"
 width="300.000000pt" height="233.000000pt" viewBox="0 0 300.000000 233.000000"
 preserveAspectRatio="xMidYMid meet">
<metadata>
Created by potrace 1.10, written by Peter Selinger 2001-2011
</metadata>
<g transform="translate(0.000000,233.000000) scale(0.100000,-0.100000)"
fill="#000000" stroke="none">
<path d="M25 1165 c0 -643 1 -905 2 -582 2 324 2 850 0 1170 -1 320 -2 56 -2
-588z"/>
<path d="M584 2215 c0 -66 1 -92 3 -57 2 34 2 88 0 120 -2 31 -3 3 -3 -63z"/>
<path d="M1412 2143 l-2 -193 -65 0 -65 0 0 65 0 64 63 4 c34 2 0 4 -75 5
l-138 2 2 -52 2 -53 3 48 4 47 65 0 64 0 0 -64 0 -65 -47 -4 -48 -3 48 -2 47
-2 0 -65 0 -65 -64 0 c-59 0 -65 2 -69 23 -4 22 -4 22 -6 0 -1 -14 -9 -23 -23
-26 l-23 -4 22 -2 c20 -1 22 -7 26 -73 l3 -73 2 73 2 72 64 0 65 0 4 -47 3
-48 2 48 2 47 65 0 64 0 4 -72 3 -73 2 72 2 72 73 4 72 3 -72 2 -73 2 -3 263
c-2 236 -3 243 -5 70z m-2 -268 l0 -65 -65 0 -65 0 0 65 0 65 65 0 65 0 0 -65z"/>
<path d="M2934 2215 c0 -66 1 -92 3 -57 2 34 2 88 0 120 -2 31 -3 3 -3 -63z"/>
<path d="M303 2165 c0 -38 2 -53 4 -32 2 20 2 52 0 70 -2 17 -4 1 -4 -38z"/>
<path d="M443 2165 c0 -38 2 -53 4 -32 2 20 2 52 0 70 -2 17 -4 1 -4 -38z"/>
<path d="M1133 2165 c0 -38 2 -53 4 -32 2 20 2 52 0 70 -2 17 -4 1 -4 -38z"/>
<path d="M1273 2165 c0 -38 2 -53 4 -32 2 20 2 52 0 70 -2 17 -4 1 -4 -38z"/>
<path d="M1963 2165 c0 -38 2 -53 4 -32 2 20 2 52 0 70 -2 17 -4 1 -4 -38z"/>
<path d="M2103 2165 c0 -38 2 -53 4 -32 2 20 2 52 0 70 -2 17 -4 1 -4 -38z"/>
<path d="M2243 2165 c0 -38 2 -53 4 -32 2 20 2 52 0 70 -2 17 -4 1 -4 -38z"/>
<path d="M2792 2163 l-2 -73 -197 -3 -198 -2 198 -3 197 -2 0 -135 0 -135
-270 0 -270 0 0 65 0 64 73 4 72 3 -72 2 -73 2 0 70 0 70 -145 0 -145 0 2 -42
1 -43 4 38 4 37 64 0 64 0 4 -62 3 -63 2 63 2 62 65 0 65 0 0 -65 0 -64 -77
-4 -78 -3 78 -2 77 -2 0 -65 0 -64 -57 -4 -58 -3 57 -2 57 -2 4 -142 3 -143 2
143 2 142 270 0 270 0 3 -267 2 -268 3 268 2 267 65 0 64 0 4 -142 3 -143 2
142 2 142 33 4 32 4 -32 1 -33 2 0 64 0 65 33 4 32 4 -32 1 -33 2 0 64 0 65
33 4 c31 4 31 4 -5 5 l-38 2 0 -140 0 -140 -65 0 -65 0 0 65 0 64 63 4 62 3
-62 2 -63 2 0 65 0 64 63 4 62 3 -62 2 -62 2 -4 73 -3 72 -2 -72z"/>
<path d="M1812 2121 c-33 -6 -38 -15 -214 -356 -99 -192 -232 -451 -296 -575
-65 -124 -118 -228 -120 -232 -2 -5 14 -8 35 -8 l38 0 228 438 c125 240 263
506 307 590 44 83 74 151 67 151 -6 -1 -27 -4 -45 -8z"/>
<path d="M118 2083 c34 -2 88 -2 120 0 31 2 3 3 -63 3 -66 0 -92 -1 -57 -3z"/>
<path d="M300 2020 l0 -69 -72 -4 -73 -3 73 -2 72 -2 0 -65 0 -64 -122 -4
-123 -3 122 -2 122 -2 4 -142 3 -143 2 143 2 142 135 0 134 0 4 -72 3 -73 2
72 2 73 168 3 167 3 -167 2 -168 2 0 65 0 65 188 3 187 2 -187 3 -188 2 0 70
0 70 -145 0 -145 0 0 -70z m140 -5 l0 -65 -65 0 -65 0 0 65 0 65 65 0 65 0 0
-65z m140 0 l0 -65 -65 0 -65 0 0 65 0 65 65 0 65 0 0 -65z m-140 -140 l0 -65
-65 0 -65 0 0 65 0 65 65 0 65 0 0 -65z m140 0 l0 -65 -65 0 -65 0 0 65 0 65
65 0 65 0 0 -65z"/>
<path d="M627 2083 c18 -2 50 -2 70 0 21 2 7 4 -32 4 -38 0 -55 -2 -38 -4z"/>
<path d="M912 2083 c37 -2 100 -2 140 0 40 1 10 3 -67 3 -77 0 -110 -1 -73 -3z"/>
<path d="M1432 2085 c7 -7 229 -7 236 0 3 3 -50 5 -118 5 -68 0 -121 -2 -118
-5z"/>
<path d="M2287 2083 c18 -2 50 -2 70 0 21 2 7 4 -32 4 -38 0 -55 -2 -38 -4z"/>
<path d="M1072 1950 c-78 -12 -99 -58 -101 -222 -1 -83 -16 -117 -53 -125 -24
-5 -28 -10 -28 -38 0 -26 5 -35 29 -44 38 -17 51 -48 52 -134 1 -166 28 -217
115 -217 42 0 44 1 44 30 0 27 -3 30 -29 30 -48 0 -61 30 -61 138 0 106 -16
156 -54 174 -32 14 -33 22 -3 35 39 18 57 71 57 170 0 107 13 137 58 141 28 3
32 7 32 32 0 36 -4 38 -58 30z"/>
<path d="M1920 1924 c0 -29 3 -34 24 -34 45 0 56 -23 57 -123 0 -110 14 -154
55 -182 l31 -21 -34 -30 c-41 -35 -52 -76 -53 -191 0 -110 -4 -113 -131 -113
-116 0 -112 7 -58 -107 28 -59 151 -204 163 -192 3 3 -4 33 -14 68 -11 34 -20
87 -20 117 0 53 0 54 30 54 19 0 42 11 62 29 l32 29 6 126 c7 135 15 158 66
170 21 6 25 12 22 39 -2 24 -8 33 -24 35 -47 7 -58 35 -64 165 -8 156 -21 178
-112 191 -38 5 -38 4 -38 -30z m-17 -786 c-3 -29 -7 -55 -9 -57 -12 -14 -70
82 -59 99 3 6 21 10 40 10 l34 0 -6 -52z"/>
<path d="M1457 1943 c18 -2 50 -2 70 0 21 2 7 4 -32 4 -38 0 -55 -2 -38 -4z"/>
<path d="M2462 1943 c37 -2 100 -2 140 0 40 1 10 3 -67 3 -77 0 -110 -1 -73
-3z"/>
<path d="M1803 1803 c26 -2 68 -2 95 0 26 2 4 3 -48 3 -52 0 -74 -1 -47 -3z"/>
<path d="M443 1725 c0 -38 2 -53 4 -32 2 20 2 52 0 70 -2 17 -4 1 -4 -38z"/>
<path d="M1233 1636 c-110 -46 -123 -53 -123 -76 0 -25 21 -36 242 -128 4 -2
8 7 8 21 0 22 -11 29 -100 63 -55 22 -100 41 -100 44 0 3 43 21 96 40 94 34
109 44 102 73 -2 10 -33 1 -125 -37z"/>
<path d="M1680 1666 c0 -22 11 -29 100 -63 55 -21 100 -40 100 -43 0 -3 -45
-23 -100 -45 -86 -34 -100 -43 -100 -62 0 -13 1 -23 3 -23 2 0 59 24 128 54
106 45 124 57 124 76 0 19 -18 30 -125 76 -69 30 -126 54 -127 54 -2 0 -3 -11
-3 -24z"/>
<path d="M443 1585 c0 -38 2 -53 4 -32 2 20 2 52 0 70 -2 17 -4 1 -4 -38z"/>
<path d="M584 1530 c0 -69 1 -97 3 -62 2 34 2 90 0 125 -2 34 -3 6 -3 -63z"/>
<path d="M1413 1585 c0 -38 2 -53 4 -32 2 20 2 52 0 70 -2 17 -4 1 -4 -38z"/>
<path d="M2244 1390 c0 -69 1 -97 3 -62 2 34 2 90 0 125 -2 34 -3 6 -3 -63z"/>
<path d="M1134 1375 c0 -55 1 -76 3 -47 2 29 2 74 0 100 -2 26 -3 2 -3 -53z"/>
<path d="M303 1335 c0 -38 2 -53 4 -32 2 20 2 52 0 70 -2 17 -4 1 -4 -38z"/>
<path d="M443 1335 c0 -38 2 -53 4 -32 2 20 2 52 0 70 -2 17 -4 1 -4 -38z"/>
<path d="M583 1335 c0 -38 2 -53 4 -32 2 20 2 52 0 70 -2 17 -4 1 -4 -38z"/>
<path d="M1273 1335 c0 -38 2 -53 4 -32 2 20 2 52 0 70 -2 17 -4 1 -4 -38z"/>
<path d="M2933 1335 c0 -38 2 -53 4 -32 2 20 2 52 0 70 -2 17 -4 1 -4 -38z"/>
<path d="M187 1253 c18 -2 50 -2 70 0 21 2 7 4 -32 4 -38 0 -55 -2 -38 -4z"/>
<path d="M300 1120 l0 -139 -57 -4 -58 -3 58 -2 57 -2 0 -72 c0 -39 2 -69 5
-66 3 3 6 67 6 142 l0 136 64 0 65 0 0 -65 0 -64 -57 -4 c-32 -2 28 -3 132 -3
105 0 164 1 133 3 l-58 4 0 139 0 140 -145 0 -145 0 0 -140z m140 65 l0 -65
-65 0 -65 0 0 65 0 65 65 0 65 0 0 -65z m140 0 l0 -65 -65 0 -65 0 0 65 0 65
65 0 65 0 0 -65z m0 -140 l0 -65 -65 0 -65 0 0 65 0 65 65 0 65 0 0 -65z"/>
<path d="M658 1253 c34 -2 90 -2 125 0 34 2 6 3 -63 3 -69 0 -97 -1 -62 -3z"/>
<path d="M2183 1253 l57 -4 0 -64 0 -65 -64 0 -65 0 -4 53 c-2 28 -4 -3 -5
-70 l-2 -122 -42 -4 -43 -4 43 -1 42 -2 0 -72 c0 -39 2 -69 5 -66 3 3 6 67 6
142 l0 136 64 0 64 0 4 -57 c2 -32 4 2 5 75 l2 132 -62 -2 -63 -2 58 -3z"/>
<path d="M2287 1253 c18 -2 50 -2 70 0 21 2 7 4 -32 4 -38 0 -55 -2 -38 -4z"/>
<path d="M2593 1253 l197 -3 2 -213 c1 -116 4 -179 5 -139 l4 72 64 0 65 0 0
-127 c0 -69 2 -124 5 -121 3 2 5 91 5 196 l1 191 32 4 32 4 -32 1 -33 2 0 64
0 65 33 4 c17 2 -105 3 -273 3 -187 0 -229 -2 -107 -3z m337 -68 l0 -65 -65 0
-65 0 0 65 0 65 65 0 65 0 0 -65z m0 -140 l0 -65 -65 0 -65 0 0 65 0 65 65 0
65 0 0 -65z"/>
<path d="M187 1113 c18 -2 50 -2 70 0 21 2 7 4 -32 4 -38 0 -55 -2 -38 -4z"/>
<path d="M1131 1058 c1 -68 6 -61 11 15 2 26 0 47 -4 47 -5 0 -7 -28 -7 -62z"/>
<path d="M1410 1051 l0 -70 -42 -4 -43 -4 42 -1 42 -2 4 -72 c1 -40 4 -7 5 75
1 81 0 147 -3 147 -3 0 -5 -31 -5 -69z"/>
<path d="M2397 1113 c18 -2 50 -2 70 0 21 2 7 4 -32 4 -38 0 -55 -2 -38 -4z"/>
<path d="M115 980 l-50 -7 58 -1 c37 -1 56 2 52 8 -3 6 -7 9 -8 8 -1 0 -24 -4
-52 -8z"/>
<path d="M1544 978 c-3 -5 25 -7 63 -7 73 1 68 6 -10 11 -27 2 -51 0 -53 -4z"/>
<path d="M2238 983 c-2 -5 0 -42 3 -83 l5 -75 2 83 c2 74 -1 96 -10 75z"/>
<path d="M737 973 c18 -2 50 -2 70 0 21 2 7 4 -32 4 -38 0 -55 -2 -38 -4z"/>
<path d="M877 973 c18 -2 50 -2 70 0 21 2 7 4 -32 4 -38 0 -55 -2 -38 -4z"/>
<path d="M2537 973 c18 -2 50 -2 70 0 21 2 7 4 -32 4 -38 0 -55 -2 -38 -4z"/>
<path d="M2677 973 c18 -2 50 -2 70 0 21 2 7 4 -32 4 -38 0 -55 -2 -38 -4z"/>
<path d="M1133 890 c0 -36 2 -50 4 -32 2 17 2 47 0 65 -2 17 -4 3 -4 -33z"/>
<path d="M259 741 c-54 -54 -31 -115 60 -163 35 -19 38 -43 9 -61 -20 -13 -48
6 -48 34 0 14 -7 19 -25 19 -36 0 -34 -43 4 -81 38 -38 74 -38 112 0 51 51 30
106 -60 153 -24 13 -32 24 -29 39 7 52 68 45 68 -7 0 -19 5 -24 25 -24 37 0
35 52 -4 91 -38 38 -74 38 -112 0z"/>
<path d="M460 765 c0 -2 -11 -69 -25 -147 -14 -78 -25 -146 -25 -150 0 -5 11
-8 25 -8 18 0 25 5 25 20 0 29 60 29 67 0 4 -13 14 -20 30 -20 21 0 24 4 20
22 -3 11 -16 81 -28 155 l-22 133 -34 0 c-18 0 -33 -2 -33 -5z m49 -192 c1
-27 -3 -33 -20 -33 -19 0 -20 4 -14 43 3 23 9 56 12 72 l7 30 7 -40 c4 -22 8
-55 8 -72z"/>
<path d="M610 766 c0 -3 -1 -72 -1 -153 l0 -148 26 -3 27 -3 -4 66 -3 66 30
-3 c29 -3 30 -4 33 -65 l3 -63 31 0 31 0 -5 65 c-3 36 -10 71 -16 78 -7 8 -6
18 4 31 21 29 17 71 -9 102 -20 23 -34 28 -85 32 -34 2 -62 2 -62 -2z m101
-56 c37 -20 17 -70 -28 -70 -20 0 -23 5 -23 40 0 43 13 50 51 30z"/>
<path d="M835 745 c-23 -23 -25 -31 -25 -130 0 -99 2 -107 25 -130 31 -32 78
-33 109 -2 32 32 46 175 23 230 -26 61 -89 76 -132 32z m80 -130 c0 -100 0
-100 -25 -100 -25 0 -25 1 -28 89 -3 105 0 118 30 114 22 -3 23 -7 23 -103z"/>
<path d="M1108 643 l-3 -128 -25 0 c-20 0 -26 6 -28 28 -3 21 -9 27 -28 27
-20 0 -24 -5 -24 -30 0 -41 39 -80 80 -80 19 0 40 9 55 25 24 23 25 29 25 155
l0 130 -25 0 -24 0 -3 -127z"/>
<path d="M1260 615 l0 -155 25 0 25 0 0 118 1 117 23 -39 24 -38 16 30 c9 17
19 33 23 35 5 3 6 -47 4 -110 l-3 -115 26 4 27 3 1 150 0 150 -26 3 c-20 3
-30 -3 -44 -27 -21 -38 -26 -38 -49 -1 -13 22 -25 30 -45 30 l-28 0 0 -155z"/>
<path d="M1530 763 c0 -5 -11 -71 -25 -147 -14 -77 -25 -144 -25 -148 0 -4 11
-8 25 -8 18 0 25 5 25 20 0 29 60 29 67 0 4 -13 14 -20 30 -20 21 0 24 4 20
22 -3 11 -16 81 -28 155 l-22 133 -34 0 c-18 0 -33 -3 -33 -7z m53 -185 c5
-35 4 -38 -19 -38 -22 0 -25 3 -20 28 3 15 8 47 12 72 l7 45 7 -35 c4 -19 10
-52 13 -72z"/>
<path d="M1680 615 l0 -155 25 0 c24 0 25 2 25 65 l0 65 33 0 33 0 -4 -65 -4
-65 30 0 31 0 0 155 1 155 -31 0 -30 0 2 -62 3 -63 -32 -3 -32 -3 0 65 c0 64
-1 66 -25 66 l-25 0 0 -155z"/>
<path d="M1920 763 c0 -5 -11 -71 -25 -147 -14 -77 -25 -144 -25 -148 0 -4 11
-8 25 -8 18 0 25 5 25 20 0 29 60 29 67 0 4 -13 14 -20 30 -20 21 0 24 4 20
22 -3 11 -16 81 -28 155 l-22 133 -34 0 c-18 0 -33 -3 -33 -7z m53 -215 c-2
-5 -13 -8 -24 -8 -19 0 -20 4 -14 43 15 103 18 107 30 37 6 -36 10 -68 8 -72z"/>
<path d="M2070 616 l0 -156 25 0 c24 0 25 2 25 65 0 62 1 65 25 65 32 0 47
-30 43 -83 -3 -40 -1 -42 25 -45 l29 -3 -5 66 c-3 36 -10 71 -15 78 -7 8 -6
18 4 31 21 29 17 71 -9 102 -20 23 -34 28 -85 32 l-62 4 0 -156z m101 94 c37
-20 17 -70 -28 -70 -20 0 -23 5 -23 40 0 43 13 50 51 30z"/>
<path d="M2370 651 c0 -96 -3 -121 -16 -132 -21 -17 -49 1 -48 30 0 17 -5 21
-29 21 -28 0 -29 -2 -23 -32 7 -40 48 -78 82 -78 15 0 38 12 55 29 29 29 29
30 29 155 l0 126 -25 0 -25 0 0 -119z"/>
<path d="M2471 643 c-12 -71 -25 -140 -28 -155 -5 -25 -3 -28 21 -28 19 0 26
5 26 20 0 29 60 29 67 0 4 -13 14 -20 30 -20 21 0 24 4 20 23 -3 12 -15 82
-27 155 l-23 132 -32 0 -32 0 -22 -127z m72 -65 c5 -35 4 -38 -19 -38 -22 0
-25 3 -20 28 3 15 8 47 12 72 l7 45 7 -35 c4 -19 10 -52 13 -72z"/>
<path d="M2640 615 l0 -155 26 0 27 0 -7 82 c-8 95 -2 94 42 -7 22 -50 36 -71
51 -73 20 -3 21 0 21 152 l0 156 -26 0 -27 0 5 -85 c3 -47 2 -85 -3 -85 -5 0
-9 5 -9 10 0 6 -14 44 -31 85 -23 55 -37 75 -50 75 -18 0 -19 -11 -19 -155z"/>
<path d="M2933 645 c0 -38 2 -53 4 -32 2 20 2 52 0 70 -2 17 -4 1 -4 -38z"/>
<path d="M2933 505 c0 -38 2 -53 4 -32 2 20 2 52 0 70 -2 17 -4 1 -4 -38z"/>
<path d="M108 423 c28 -2 76 -2 105 0 28 2 5 3 -53 3 -58 0 -81 -1 -52 -3z"/>
<path d="M2858 423 l72 -4 0 -134 0 -135 -65 0 -65 0 0 65 0 64 63 4 62 3 -62
2 -62 2 -4 58 c-2 31 -3 -28 -3 -133 0 -104 1 -164 3 -133 l4 58 64 0 64 0 4
-52 3 -53 2 52 c2 50 3 52 35 56 l32 4 -32 1 -33 2 0 64 0 65 33 4 32 4 -32 1
-33 2 0 64 0 65 33 4 c17 2 -17 4 -78 3 -72 0 -85 -1 -37 -3z"/>
<path d="M370 335 c0 -66 2 -75 18 -75 15 0 18 6 14 30 -4 28 -2 30 27 30 21
0 31 5 31 15 0 10 -10 15 -30 15 -16 0 -30 5 -30 10 0 6 14 10 30 10 23 0 30
4 30 20 0 17 -7 20 -45 20 l-45 0 0 -75z"/>
<path d="M480 347 c0 -36 5 -68 12 -75 16 -16 70 -16 86 0 18 18 16 138 -3
138 -10 0 -15 -15 -17 -57 -3 -50 -6 -58 -23 -58 -17 0 -20 8 -23 58 -2 42 -7
57 -17 57 -12 0 -15 -15 -15 -63z"/>
<path d="M620 336 l0 -76 46 0 c38 0 45 3 42 18 -2 12 -11 16 -31 14 l-29 -4
3 59 c2 48 0 59 -14 61 -15 3 -17 -6 -17 -72z"/>
<path d="M722 335 l2 -75 49 0 c41 0 48 3 45 18 -3 12 -12 16 -31 14 -27 -3
-27 -2 -27 58 0 54 -2 60 -20 60 -19 0 -21 -5 -18 -75z"/>
<path d="M896 394 c-9 -8 -16 -21 -16 -28 0 -15 27 -40 53 -49 9 -4 17 -11 17
-17 0 -13 -23 -13 -36 0 -5 5 -15 6 -23 0 -24 -14 6 -40 45 -40 27 0 37 5 46
26 11 23 10 29 -11 45 -13 11 -29 19 -37 19 -8 0 -14 7 -14 15 0 17 11 20 26
5 6 -6 15 -6 24 1 13 8 12 11 -4 24 -25 19 -51 19 -70 -1z"/>
<path d="M990 389 c0 -13 7 -19 21 -19 20 0 21 -4 17 -55 -4 -48 -2 -55 14
-55 15 0 18 8 18 55 0 48 2 55 20 55 13 0 20 7 20 19 0 17 -7 20 -55 20 -48 0
-55 -3 -55 -20z"/>
<path d="M1136 402 c-3 -5 -16 -39 -29 -75 -23 -62 -23 -67 -7 -67 10 0 20 7
24 15 3 8 16 15 30 15 13 0 26 -7 30 -15 3 -8 14 -15 25 -15 18 0 18 2 -4 58
-12 31 -25 65 -28 75 -7 18 -32 23 -41 9z"/>
<path d="M1264 398 c-67 -32 -43 -138 31 -138 35 0 75 33 55 45 -7 4 -23 2
-36 -5 -31 -17 -56 2 -52 39 3 28 39 41 61 22 8 -6 18 -6 27 0 13 8 11 13 -9
29 -26 22 -45 24 -77 8z"/>
<path d="M1380 335 c0 -60 3 -75 15 -75 8 0 15 9 15 19 0 31 18 34 36 6 10
-15 26 -25 41 -25 l24 0 -32 40 -33 40 27 28 c32 33 34 42 8 42 -11 0 -31 -15
-45 -32 l-26 -33 0 33 c0 22 -5 32 -15 32 -12 0 -15 -15 -15 -75z"/>
<path d="M1570 335 l0 -75 41 0 c70 0 106 35 94 91 -8 35 -48 59 -100 59 l-35
0 0 -75z m100 15 c8 -15 6 -24 -10 -40 -33 -33 -50 -26 -50 20 0 36 3 40 25
40 14 0 29 -8 35 -20z"/>
<path d="M1730 335 l0 -75 45 0 c37 0 45 3 45 18 0 13 -8 18 -27 17 -14 0 -28
6 -30 13 -3 8 6 12 26 12 21 0 31 5 31 15 0 10 -10 15 -30 15 -16 0 -30 5 -30
10 0 6 14 10 30 10 23 0 30 4 30 20 0 17 -7 20 -45 20 l-45 0 0 -75z"/>
<path d="M1830 403 c0 -4 10 -37 22 -75 18 -56 26 -68 43 -68 17 0 25 13 44
71 12 39 20 73 17 76 -13 13 -33 -8 -45 -48 -15 -47 -15 -47 -41 24 -8 23 -40
40 -40 20z"/>
<path d="M1977 403 c-4 -3 -7 -37 -7 -75 l0 -68 45 0 c37 0 45 3 45 18 0 13
-8 18 -27 17 -14 0 -28 6 -30 13 -3 8 6 12 26 12 21 0 31 5 31 15 0 9 -9 15
-24 15 -14 0 -28 5 -31 10 -4 6 7 10 24 10 24 0 31 4 31 20 0 17 -7 20 -38 20
-21 0 -42 -3 -45 -7z"/>
<path d="M2087 403 c-4 -3 -7 -37 -7 -75 l0 -68 50 0 c38 0 50 4 50 15 0 10
-10 15 -30 15 -30 0 -30 0 -30 60 0 43 -4 60 -13 60 -8 0 -17 -3 -20 -7z"/>
<path d="M2206 389 c-73 -58 15 -167 92 -113 33 23 31 86 -4 113 -15 12 -34
21 -44 21 -10 0 -29 -9 -44 -21z m82 -50 c4 -31 -20 -53 -47 -44 -47 15 -31
79 18 73 20 -2 27 -9 29 -29z"/>
<path d="M2340 336 c0 -71 1 -76 21 -76 18 0 20 4 15 25 -5 21 -3 25 17 25 29
0 47 18 47 45 0 33 -15 46 -59 52 l-41 6 0 -77z m70 19 c0 -8 -9 -15 -20 -15
-11 0 -20 7 -20 15 0 8 9 15 20 15 11 0 20 -7 20 -15z"/>
<path d="M2460 335 l0 -75 45 0 c33 0 45 4 45 15 0 10 -10 15 -30 15 -20 0
-30 5 -30 15 0 9 9 15 25 15 16 0 25 6 25 15 0 9 -9 15 -25 15 -14 0 -25 5
-25 10 0 6 14 10 30 10 23 0 30 4 30 20 0 17 -7 20 -45 20 l-45 0 0 -75z"/>
<path d="M2570 335 c0 -60 3 -75 15 -75 9 0 15 9 15 25 0 14 5 25 10 25 6 0
16 -11 22 -25 7 -16 19 -25 35 -25 23 0 23 1 6 26 -13 21 -14 30 -5 45 16 26
15 36 -8 59 -12 12 -33 20 -55 20 l-35 0 0 -75z m75 20 c0 -5 -10 -11 -22 -13
-16 -2 -23 2 -23 13 0 11 7 15 23 13 12 -2 22 -7 22 -13z"/>
<path d="M187 283 c18 -2 50 -2 70 0 21 2 7 4 -32 4 -38 0 -55 -2 -38 -4z"/>
<path d="M302 213 l-2 -62 -57 -4 -58 -3 57 -2 57 -2 3 -57 3 -58 5 60 c3 33
2 89 -1 125 l-6 65 -1 -62z"/>
<path d="M442 193 l-2 -53 75 0 75 0 -2 43 -1 42 -4 -37 -4 -38 -64 0 -64 0
-4 48 -3 47 -2 -52z"/>
<path d="M1131 188 l-1 -37 -72 -4 -73 -3 72 -2 72 -2 3 -57 3 -58 5 60 c3 33
2 78 -1 100 l-6 40 -2 -37z"/>
<path d="M1410 185 l0 -35 -64 0 -65 0 -4 33 -4 32 -1 -32 c-2 -32 -3 -32 -59
-36 -32 -2 -1 -4 69 -5 l127 -2 4 -57 c2 -39 4 -26 5 40 1 53 0 97 -3 97 -3 0
-5 -16 -5 -35z"/>
<path d="M2100 180 c0 -28 -1 -29 -57 -33 l-58 -3 65 -2 66 -2 -4 35 c-5 43
-12 46 -12 5z"/>
<path d="M2240 175 c0 -22 -4 -24 -57 -28 l-58 -3 63 -2 62 -2 0 30 c0 17 -2
30 -5 30 -3 0 -5 -11 -5 -25z"/>
<path d="M1544 148 c-3 -5 25 -7 63 -7 73 1 68 6 -10 11 -27 2 -51 0 -53 -4z"/>
<path d="M2397 143 c18 -2 50 -2 70 0 21 2 7 4 -32 4 -38 0 -55 -2 -38 -4z"/>
</g>
</svg>
